<?xml version="1.0" encoding="utf-8"?>
<!-- Generator: Adobe Illustrator 22.1.0, SVG Export Plug-In . SVG Version: 6.00 Build 0)  -->
<svg version="1.1" id="Layer_1" xmlns="http://www.w3.org/2000/svg" xmlns:xlink="http://www.w3.org/1999/xlink" x="0px" y="0px"
	 viewBox="0 0 345.7 314.5" style="enable-background:new 0 0 345.7 314.5;" xml:space="preserve">
<style type="text/css">
	.st0{fill:#FFFFFF;stroke:#FFE60E;stroke-width:3;stroke-miterlimit:10;}
	.st1{fill:none;stroke:#FFCACA;stroke-width:3;stroke-miterlimit:10;}
	.st2{fill:#FF00FF;}
	.st3{fill:#0000FF;}
	.st4{fill:#00FFFF;}
	.st5{fill:#00FF00;}
	.st6{fill:#FFFF00;}
	.st7{fill:#FF9900;}
	.st8{fill:#FF0000;}
	.st9{fill:#FFFFFF;}
	.st10{fill:none;stroke:#000099;stroke-width:3;stroke-miterlimit:10;}
	.st11{fill:#000099;}
	.st12{fill:none;stroke:#FFE60E;stroke-width:3;stroke-miterlimit:10;}
</style>
<path class="st1" d="M30.5,176.4c-1.5-2.4-3.1-4.7-4.6-7.1c-3.6-6.1-6.2-12.5-6.2-19.8c0-4.3,1.1-8.4,3.2-12.2
	c0.6-1.1,0.6-2,0.1-3.1c-3.4-7.5-6-15.2-6.4-23.6c-0.3-5.9,0.6-11.6,4-16.7c4.8-7.1,11.9-10.3,20-11.6c5.5-0.9,11-0.4,16.4,0.8
	c0.5,0.1,1,0.2,1.8,0.4c-0.5-2.7-0.9-5.3-1.3-7.8c-1.8-12.5,0.1-24.2,8.4-34.2c7-8.4,16.2-13,26.6-15.5c13.2-3,26.1-1.6,38.9,2.2
	c12.1,3.6,23.5,9.1,35.1,14.1c5.9,2.5,12,4.7,18,7.1c0.4,0.2,0.8,0.2,1.4,0.3c0-0.6,0-1,0-1.4c0-1.9,0.8-2.8,2.5-2.9
	c1.7-0.1,2.9,0.8,3.2,2.5c0.2,1.2-0.1,3,0.6,3.5c1.1,0.9,2.8,1,4.2,1.3c14,3.2,27.6,2.5,40.7-3.6c11.8-5.5,23.5-5,35.4-0.7
	c12.4,4.5,24.6,9.3,35.6,16.5c7.9,5.2,14.8,11.3,18.5,20.3c2.4,5.8,2.8,11.8,1.5,17.9c-1.1,5.1-4.1,8.8-8.3,11.9
	c-10.8,7.9-23,11.9-36.1,13.5c-9.8,1.1-19.7,1-29.6,0.4c-3.7-0.2-7.3,0-10.9,0c0.6,0.4,1.4,0.9,2.2,1.4
	c14.1,6.9,27.3,15.1,38.4,26.5c0.6,0.6,1.5,1,2.4,1.4c10.2,4.2,20.4,8.2,29.9,14c6.6,4.1,12.5,8.9,17,15.3c5.9,8.5,7.8,18,7.4,28.1
	c-0.4,10.5-2.5,20.7-7.4,30.2c-6.6,12.8-20.8,21.2-34.3,19.9c-7.4-0.7-13.2-4.5-18.1-10c-6.1-6.9-9.2-15.1-10.6-24
	c-1.2-7.6-2.2-15.2-3.5-22.8c-0.6-3.3-1.7-6.5-2.8-9.7c-0.2-0.6-1-1.3-1.6-1.4c-9.5-0.3-17.9-3.8-25.9-8.6
	c-7.9-4.8-15.6-10-23.4-14.9c-3-1.9-6.4-3.4-9.7-5.1c-2.7,5-3.8,10-3.5,15.3c0.3,7.4,4.5,12.4,10.1,16.5c5.5,4.1,11.3,7.9,16,13
	c5.1,5.5,9.3,11.5,11.1,18.8c2,8.2,0.2,15.8-5.2,22.1c-3.6,4.3-7.8,8-12,11.8c-6.4,5.8-13.1,11.2-19.4,17.1
	c-11.6,10.9-25.4,15.1-41,13.8c-17.5-1.4-31.9-9.7-44.2-21.7c-4-3.9-7.6-8.3-10.6-13c-5.4-8.6-8.5-17.9-6.6-28.3
	c2-10.8,8.4-18.1,18.5-22c1.6-0.6,2-1.2,1.7-3c-2.2-13.2-0.5-25.5,7.5-36.6c3-4.2,6.8-7.5,11.1-10.2c0.7-0.4,1.5-1.1,1.7-1.8
	c5.3-14.8,16-24.5,29.7-31.2c3.1-1.5,6.3-2.7,9.8-4.1c-3.1-0.8-6.1-1.5-9-2.3c-10.8-2.8-21.6-5.7-32-10.1c-2.2-0.9-4.5-1.9-6.6-3.1
	c-1.4-0.8-2.8-1-4.5-0.9c-14.7,1.1-28.6-2.1-41.7-8.6c-5.1-2.6-10.3-5-15.7-7.3c0.9,2.9,2.4,5.5,4.3,7.9c4.4,5.3,9.9,9.3,15.3,13.5
	c5.9,4.5,11.9,9,17.5,13.8c8.4,7.1,11,16.5,9.9,27.2c-0.5,5.1-1.7,10-4.1,14.5c-4,7.7-10.8,10.9-18.9,12.2
	c-11.4,1.9-22.8,1.8-34.2,1.3c-5-0.2-10.1-0.7-15.6-1.1c1.9,2,3.5,3.8,5.2,5.4c5.8,5.6,11.9,10.9,17.6,16.6
	c5.9,5.8,9.7,12.7,9.3,21.4c-0.4,9.3-7.1,16-16.5,16.4c-4.7,0.2-9.2-0.7-13.6-2.4c-9.6-3.8-18.6-8.7-26.4-15.4
	c-6.9-5.9-11.6-13.2-12.2-22.5C5.5,190,11.8,181.3,23.2,178C25.5,177.3,28,176.9,30.5,176.4z M197.6,167.3c-0.5-0.2-0.9-0.4-1.4-0.5
	c-8.7-2.5-17.7-4.1-26.7-4.8c-8.5-0.6-16.9-0.1-24.9,3.1c-1.2,0.5-1.7,1.2-2,2.4c-1.3,6.1-1.6,12.3-1.4,18.5
	c0.2,8.3,1.3,16.4,3.7,24.4c0.4,1.3,1,2.2,2.4,2.8c2.4,1,4.7,2.2,7,3.5c8.3,4.5,14.8,10.9,19.4,19.1c3.7,6.5,5.9,13.5,4.9,21.2
	c-0.8,6-3.7,10.6-9.8,12.5c-4.8,1.5-9.3,0.2-13.5-2.3c-5.6-3.2-9.6-8.1-13.6-13c-8.1-9.9-15.4-20.3-20.1-32.4
	c-0.6-1.4-1-2.9-1.6-4.5c-7.9,2.7-13.5,7.6-15.7,15.5c-2.5,9.1-0.5,17.7,4.4,25.6c10.5,17.2,25.6,28.3,45.4,32.4
	c17,3.5,32-0.6,44.6-13.1c4.9-4.9,10.3-9.4,15.7-14c4.7-4,9.5-7.8,13.2-12.8c4.8-6.3,6-13.1,2.9-20.6c-2.3-5.6-5.9-10.3-10.5-14.2
	c-5.1-4.3-10.3-8.3-15.5-12.4c-8.9-7-12.2-16.1-9.7-27.1C195.4,173.5,196.6,170.5,197.6,167.3z M212.7,121.1
	c-2.4-1.2-4.6-2.3-6.8-3.5c-6-3.2-12-6.6-16.7-11.7c-3.8-4.1-5.8-8.9-4.8-14.6c0.9-5,3.4-9.2,6.6-13.1c0.4-0.5,0.8-1.5,0.6-2.1
	c-2.3-6.2-3.9-12.6-4.9-19.2c-0.1-0.6-0.7-1.3-1.3-1.5c-11.9-4.8-23.8-9.6-35.6-14.4c-11.9-4.9-23.8-9.6-36.7-10.7
	c-12-1-23.3,1-33.7,7.4C70.7,42.9,65,50.4,63.1,60.5c-1.5,8.3,0,16.3,2.3,24.2c0.2,0.6,1,1.2,1.7,1.5c4,1.8,8.2,3.5,12.2,5.4
	c8.6,4.1,17.2,8.5,26.7,10.3c4.5,0.8,9.1,1.3,13.6,1.9c0-0.5,0.1-0.6,0.1-0.7c-0.4-0.3-0.7-0.7-1.1-1c-4.6-3.9-8.4-8.3-11.1-13.7
	c-5.6-11-4.3-23.4,3.1-31.8c11.2-12.7,34-13.4,43.8,3.1c5.1,8.5,8.7,17.3,8,27.4c-0.4,6.3-3.3,11.5-9,14.4
	c-3.5,1.8-7.2,3.1-10.9,4.6c-1.1,0.4-2.3,0.7-3.9,1.1c2.7,1,4.8,2.1,7,2.7c14.2,4,28.4,8,42.6,11.9c1.8,0.5,3.8,0.5,5.7,0.4
	C200.1,122,206.3,121.5,212.7,121.1z M196.2,72.6c4-1.8,7.4-3.7,11.1-4.9c9.5-3.3,19.4-3.5,29.3-2.2c10,1.3,19.6,4.2,27.9,10.1
	c3.7,2.6,6.7,5.8,8.6,10c3.8,8.4,0.5,18.8-7.8,24.1c-9.4,6.1-19.8,6.7-30.4,4.5c-17.8-3.8-30.7-14.3-39.5-30c-0.2-0.4-0.5-0.8-1-1.5
	c-1.1,1.9-2.2,3.6-3,5.3c-2.5,5.6-1.9,10,2.6,14.4c2.3,2.2,4.8,4.4,7.5,5.8c8.6,4.6,17.4,8.8,26.1,13.2c0.6,0.3,1.3,0.4,2,0.5
	c12.5,0.6,24.9,1.2,37.4,1.6c8,0.2,15.9-0.6,23.7-2.2c10-2.1,19.2-5.9,27.3-12.2c2.3-1.8,4-4,4.6-6.9c1.1-6,0.4-11.8-2.5-17.3
	c-3-5.6-7.3-9.9-12.4-13.5c-14.4-9.9-30.5-16-47.3-20.2c-5.4-1.3-10.8-0.8-16,1.3c-2.3,0.9-4.5,1.8-6.8,2.6
	c-10.9,4.3-22.2,5.8-33.9,4.3c-3.6-0.5-7.2-1.2-11.3-1.8C193.6,62.9,194.9,67.8,196.2,72.6z M269.4,197.2c0.4,1.2,0.8,2.4,1.1,3.5
	c3,9.6,3.6,19.7,5.2,29.5c1.1,6.7,2.9,13.2,7,18.8c7.1,9.8,17.3,13.1,28.2,9.2c6.6-2.4,11.8-6.7,15.5-12.7c5-8,7.3-16.8,8.2-26.1
	c0.6-6.1,0.7-12.3-1-18.3c-2.5-8.7-8-15.3-15.1-20.7c-8.5-6.5-18.3-10.4-28.1-14.4c-0.1,0-0.2,0.1-0.3,0.1
	C293.2,181.6,286.7,191.3,269.4,197.2z M27,142.2c-1.6,3.8-1.7,7.5-1,11.3c1.5,8.5,6.1,15.5,11.3,22.1c0.4,0.5,1.3,0.7,2,0.8
	c2.9,0.3,5.7,0.4,8.6,0.7c13.6,1.1,27.2,1.4,40.8,0.2c5.9-0.5,11.5-2.1,15.6-6.8c3.9-4.5,5.3-10,5.6-15.8c0.4-7.9-0.7-15.4-6.9-21
	c-5.6-5-11.4-9.9-17.6-14.3c-10.6-7.5-20-15.9-24.5-28.6c-0.2-0.5-0.9-1-1.5-1.2c-6.3-1.8-12.7-2.6-19.3-1.3c-11,2.1-17.3,9-18,19.7
	c-0.4,6.9,1.5,13.4,4.1,19.6c0.4,0.9,0.9,1.9,1.4,3c5.9-5.7,12.8-9.1,20.5-10.9c17-4.2,32,4.9,35.5,21.5c1.3,6.4,1.2,12.7-3.3,18
	c-7.6,9.1-21.1,13.8-33.7,6c-6.4-3.9-11-9.5-15.2-15.6C30,147.2,28.6,144.8,27,142.2z M145.7,158.5c0.9-0.2,1.6-0.4,2.3-0.5
	c3.7-0.6,7.4-1.5,11.1-1.6c13.7-0.6,27.1,1.3,40.1,5.4c1.5,0.5,2.4,0.4,3.6-0.8c3.6-3.8,8.1-5.9,13.4-5.5c3,0.3,6,0.6,8.8,1.6
	c17.6,6.4,32.1,16.7,41.3,33.4c0.5,1,1.1,1.3,2.1,0.9c2.2-0.7,4.5-1.2,6.5-2.3c10.1-5.3,13.2-16.1,7.2-25.1c-0.8-1.2-2-2.2-3.3-2.8
	c-6.1-2.8-12.4-5.3-18.6-8.1c-21-9.4-42.4-17.7-64.8-23.3c-3.1-0.8-5.9-0.9-9-0.2c-12.9,3.1-24.5,8.7-33.7,18.5
	C149.9,151,147.6,154.4,145.7,158.5z M243.3,109.7c8.9,0,15.4-1.9,19.8-5.5c5-4,6.9-10.6,4.7-16.1c-1.7-4.3-5-7.2-8.8-9.3
	c-12.2-6.8-25.4-9.1-39.3-7.9c-6.6,0.6-12.9,2.4-18.5,6.2c-2.4,1.6-2.4,1.6-1.1,4c2.6,4.8,5.7,9.2,9.6,13.1
	C219.5,103.8,231.1,109.2,243.3,109.7z M56.9,236.5c6.7,0,10.8-3.2,12.2-9.1c0.7-3,0.3-6-0.8-8.8c-2.1-5.1-5.6-9.2-9.5-12.8
	c-7.8-7.3-16-14.4-22.8-22.7c-0.4-0.5-1.4-1-2-0.9c-3.8,0.7-7.7,1-11.3,2.3c-7.8,2.9-11.7,10-10.5,18.2c1.1,7.4,5.1,13,10.7,17.7
	c6.2,5.2,13.3,9.1,20.6,12.5C47.9,234.9,52.5,236.4,56.9,236.5z M132.6,53c-17.4-0.3-28.4,17.6-20.8,32c4,7.6,10.1,12.9,17.2,17.4
	c0.6,0.4,1.4,0.4,2.1,0.3c5.9-0.8,11.6-2.4,17.1-4.8c5.7-2.5,8.6-7,8.6-13.3c0-7.4-3-14-6.3-20.4C146.4,56.6,139.8,53.2,132.6,53z
	 M54.7,124.5c-7.8,0.3-15.9,3.6-22.8,10.1c-0.9,0.9-1.5,1.7-0.6,3c1.1,1.6,2,3.5,3,5.2c3.6,6,7.7,11.7,13.4,15.9
	c9.2,6.8,20.3,5.8,27.9-2.8c1.2-1.4,2.2-3.2,2.6-5C81.3,137.6,70.3,124.4,54.7,124.5z M149.2,220.4c-0.1,0.1-0.3,0.2-0.4,0.4
	c1.6,2.5,3.3,5,4.9,7.4c1.3,2,0.4,4.2-2,4.2c-1,0-2.4-0.5-2.9-1.3c-2.4-3.9-4.5-8-6.8-12c-0.4-0.8-1-1.9-1.7-2.1
	c-4.7-1.3-9.6-1.7-14.6-1.1c0.1,0.6,0.1,1.1,0.3,1.5c2.6,5.7,4.8,11.6,8,16.9c4.9,8.1,10.8,15.5,17.4,22.3c3.1,3.2,6.5,6.1,11,7.2
	c4.5,1.2,8.1-0.8,9.7-5.1c1.2-3.2,1.1-6.4,0.5-9.6c-1.4-8.1-5.7-14.6-11.5-20.2C157.7,225.5,153.7,222.6,149.2,220.4z M260.4,191.5
	c-0.7-1.1-1.1-1.8-1.5-2.6c-5.3-8.2-12.6-14.3-20.8-19.4c-5.9-3.6-12.1-6.8-19-8.2c-4.5-0.9-8.5-0.1-11.7,2.9
	c6.4,3.9,12.7,7.8,19,11.7c5.8,3.5,11.4,7.2,17.3,10.4C248.8,189.2,254.3,190.9,260.4,191.5z M138.7,210.1
	c-3.2-13-4.3-26.4-2.4-40.2c-12.8,9.6-15.1,29.7-11.8,40.2C129.1,210.1,133.8,210.1,138.7,210.1z M208.1,127.3
	c20.6,5.4,39.9,14.4,59.4,22.8c-1-1-2-1.7-3.1-2.5c-11.7-8.1-24.4-14.1-37.3-19.9c-0.5-0.2-1.1-0.4-1.6-0.4
	C219.7,127.3,213.9,127.3,208.1,127.3z"/>
</svg>
