<?xml version="1.0" encoding="utf-8"?>
<!-- Generator: Adobe Illustrator 22.1.0, SVG Export Plug-In . SVG Version: 6.00 Build 0)  -->
<svg version="1.1" id="Layer_1" xmlns="http://www.w3.org/2000/svg" xmlns:xlink="http://www.w3.org/1999/xlink" x="0px" y="0px"
	 viewBox="0 0 271.8 225.5" style="enable-background:new 0 0 271.8 225.5;" xml:space="preserve">
<style type="text/css">
	.st0{fill:#FFFFFF;stroke:#FFE60E;stroke-width:3;stroke-miterlimit:10;}
	.st1{fill:none;stroke:#FFCACA;stroke-width:3;stroke-miterlimit:10;}
	.st2{fill:#FF00FF;}
	.st3{fill:#0000FF;}
	.st4{fill:#00FFFF;}
	.st5{fill:#00FF00;}
	.st6{fill:#FFFF00;}
	.st7{fill:#FF9900;}
	.st8{fill:#FF0000;}
	.st9{fill:#FFFFFF;}
	.st10{fill:none;stroke:#000099;stroke-width:3;stroke-miterlimit:10;}
	.st11{fill:#000099;}
	.st12{fill:none;stroke:#FFE60E;stroke-width:3;stroke-miterlimit:10;}
</style>
<g>
	<path class="st0" d="M172.6,62.5c0,0-14.5,23.6-25.1,34.3l-86.3,86.3l-9.9,9.9l-6.4,6.4c-4.7,4.7-4.7,12.3,0,17l4.2,4.2
		c4.7,4.7,12.3,4.7,17,0l6.4-6.4l9.9-9.9l86.3-86.3c10.6-10.6,33.9-25.4,33.9-25.4L172.6,62.5z"/>
	<path class="st0" d="M261.2,34l-16.6,16.6c-5.9,5.9-15.5,5.9-21.5,0l-8.2-8.2c-5.9-5.9-5.9-15.5,0-21.5l17-17
		c-16.2-5.5-34.9-1.8-47.9,11.1c-18.2,18.2-18.2,47.6,0,65.8s47.6,18.2,65.8,0C262.4,68.2,266.2,50,261.2,34z"/>
</g>
<g>
	<polygon class="st0" points="87,18.7 87,18.7 87.2,18.5 	"/>
	<path class="st0" d="M229.7,192.5l-58.4-58.4c-3.4-3.4-8.2-4.7-12.6-3.9L99.6,71.1L119.7,51L96.7,27.9c7.8-7.7,21.1-19.5,33.8-24.4
		c-0.4-1.6-1.6-2.4-3.6-2.4C113.1,1,95.5,10.2,87,18.7L27.8,77.8l7.6,7.6L24.6,96.3L24,95.7c-2.7-2.7-7-2.7-9.7,0l-5.1,5.1
		c-2.7,2.7-2.7,7,0,9.7l19,19c2.7,2.7,7,2.7,9.7,0l5.1-5.1c2.7-2.7,2.7-7,0-9.7l-1.1-1.1l10.8-10.8l7.6,7.6l20.2-20.2l59.1,59.1
		c-0.8,4.4,0.5,9.2,3.9,12.6l58.4,58.4c5.6,5.6,14.6,5.6,20.1,0l7.7-7.7C235.2,207,235.2,198,229.7,192.5z"/>
</g>
</svg>
