<?xml version="1.0" encoding="utf-8"?>
<!-- Generator: Adobe Illustrator 22.1.0, SVG Export Plug-In . SVG Version: 6.00 Build 0)  -->
<svg version="1.1" id="Layer_1" xmlns="http://www.w3.org/2000/svg" xmlns:xlink="http://www.w3.org/1999/xlink" x="0px" y="0px"
	 viewBox="0 0 277.9 370" style="enable-background:new 0 0 277.9 370;" xml:space="preserve">
<style type="text/css">
	.st0{fill:#FFFFFF;stroke:#FFE60E;stroke-width:3;stroke-miterlimit:10;}
	.st1{fill:none;stroke:#FFCACA;stroke-width:3;stroke-miterlimit:10;}
	.st2{fill:#FF00FF;}
	.st3{fill:#0000FF;}
	.st4{fill:#00FFFF;}
	.st5{fill:#00FF00;}
	.st6{fill:#FFFF00;}
	.st7{fill:#FF9900;}
	.st8{fill:#FF0000;}
	.st9{fill:#FFFFFF;}
	.st10{fill:none;stroke:#000099;stroke-width:3;stroke-miterlimit:10;}
	.st11{fill:#000099;}
	.st12{fill:none;stroke:#FFE60E;stroke-width:3;stroke-miterlimit:10;}
</style>
<g>
	<g>
		<path d="M94.3,281.3c-1.7-0.5-3.6-0.5-5.4-0.7c-6.9,0.3-6.1-0.6-6.2,6.5c0,0.7,0,1.4,0,2c0,9.9,0,9.9,9.8,8.6
			c4.5-0.6,7.2-3,7.6-6.9C100.8,285.4,99.4,282.9,94.3,281.3z"/>
	</g>
	<g>
		<path d="M200,283.5c-4.4-3.6-9.7-2.7-14.7-2.6c-0.5,3-0.9,6-1.4,8.9c0,0.2,0,0.5,0,0.7c0,0,0,0,0,0c0,2.4-0.2,4.8,0.1,7.2
			c0.1,0.9,1.6,2.4,2.4,2.4c3.4,0,6.8-0.2,10.1-0.9c3.1-0.6,5.2-3,5.7-6.2C202.7,289.6,203.1,286,200,283.5z"/>
	</g>
	<g>
		<path d="M277.9,5.1c0-1.7-0.2-3.4-0.3-5.1C185.1,0,92.6,0,0.1,0C0.1,1.4,0,2.7,0,4.1c0,120.6,0,241.2,0,361.8
			c0,1.4,0.1,2.7,0.1,4.1c11.9,0,23.8,0,35.6,0c68.7,0,137.5,0,206.2,0c11.9,0,23.8,0,35.6,0c0.1-1.4,0.3-2.7,0.3-4.1
			C278,245.7,278,125.4,277.9,5.1z M107.4,332.8c-0.9-0.1-1.9-1.1-2.5-2c-3.2-4.8-6.3-9.8-9.5-14.6c-1.7-2.6-3.3-5.5-5.5-7.7
			c-1.2-1.1-3.6-1.2-5.5-1.1c-0.6,0-1.5,2-1.6,3.1c-0.2,6.2-0.1,12.3-0.1,18.5c0,1.2-0.2,2.4-0.3,3.9c-3.1,0-6-0.1-8.8,0
			c-2.1,0.1-2.8-0.8-2.7-2.8c0.1-3.2,0-6.4,0-9.6c0-15.2,0.1-30.3-0.1-45.5c0-3.2,0.7-4.5,4.1-4.3c6,0.3,12.1,0.1,18.1,0
			c4.9-0.1,9,1.9,13.2,4.2c5.5,3.1,7.2,14.2,4.7,19.8c-1.1,2.6-3.2,4.8-5.2,6.9c-1.3,1.4-3,2.3-5,3.7c6,9,11.9,17.9,18.3,27.6
			C114.6,332.9,111,333.1,107.4,332.8z M89.7,221.7c1.2,1.9,1.1,4.7,1.2,7.1c0.1,3.6-1.3,7.2,1.4,10.5c0.5,0.6,0.3,1.9,0.4,2.8
			c-0.4,0.1-0.8,0.2-1.2,0.3c-0.5-1.2-1.5-2.3-1.4-3.5c0.2-5-1.5-9.2-5-12.6c-3.3-3.1-4.1-6.8-3.8-11.1c0.2-2.5,1.1-5.5-2.2-7.3
			c-0.5-0.3-0.2-2.5,0.1-3.8c1-4.6,6.9-7.8,10.3-5c1.6,1.3,1.6,5,1.7,7.6c0,1.4-1.3,2.8-2,4.3C87.5,214.7,87.3,218.1,89.7,221.7z
			 M160.5,280.9c-3,5.5-6.1,10.9-9.2,16.4c-1,1.8-2.6,3.2-3.4,5.1c-1.3,3-2.8,6.1-3,9.2c-0.4,5.8,0,11.6,0,17.4
			c0,1.2-0.2,2.4-0.3,3.8c-3.5,0-6.8,0-10.6,0c0-4.1-0.3-8.1,0.1-12c0.8-8.7-1.1-16.4-6.2-23.7c-5-7.1-8.8-15.1-13.1-22.7
			c-0.5-0.9-0.9-2-1.7-3.5c3.9,0,7.1-0.1,10.4,0.1c0.8,0,1.7,1,2.2,1.7c2.3,4.1,4.3,8.2,6.6,12.3c2.3,3.9,4.8,7.7,7.4,11.9
			c2.1-3.9,4.2-7.6,6.3-11.3c2.5-4.4,5.1-8.8,7.7-13.2c0.4-0.7,1.3-1.5,2-1.5c3.3-0.2,6.5-0.1,10.5-0.1
			C164,274.5,162.3,277.7,160.5,280.9z M214.1,291.8c-1.3,10.7-5.6,14.7-16.8,17.1c-3.4,0.7-6.9,1.1-10.3,1.2
			c-2.4,0.1-3.2,0.8-3.2,3.2c0.1,5.1-0.1,10.3,0.1,15.4c0.1,2.7-0.6,3.9-3.6,3.9c-8.9,0.1-7.2,0.2-7.2-7
			c-0.1-16.4-0.1-32.8-0.2-49.3c0-1.7,0-3.4,0-5.4c10.3-0.5,19.9-1.4,29.5,1.3C212.6,275.2,215.1,283.5,214.1,291.8z M270,60
			c-0.1,40.2-0.3,80.4-0.4,120.6c-0.1,24.8-0.1,49.5-0.1,74.3c0,2.6-0.6,3.5-3.4,3.6c-10.6,0.2-10.2,0.2-11.9-10.2
			c-1.3-8.2-3-16.3-5.4-24.3c-2.2-7.5-3.2-15.1,1.1-21.7c2.5-3.8,2.9-7.4,3.2-11.4c0.1-1.1,0.8-2.7,1.7-3.1c2.7-1,2.8-3.2,3.4-5.4
			c3.7-13.8-0.6-27.4-0.7-41.1c0-3.3-0.5-6.6-0.9-9.9c-0.4-2.9,0.6-5.1,2.2-7.5c3.5-5.3,6.4-11,9.4-16.6c0.3-0.6-0.1-1.7-0.2-2.5
			c-0.8,0.2-1.8,0.2-2.4,0.7c-2.5,1.8-5,3.8-7.1,5.5c0.6-4.7,4.8-10.2,1.4-16.8c-1.7,3.1-3.5,6.2-5.4,9.7c-0.8-4.9-1.5-9.5-2.2-14.1
			c-0.6,0-1.2,0-1.8,0c-0.6,4.9-1.2,9.8-1.9,15.4c-2.1-5.2-0.8-10.7-5.3-15.1c-1.8,7.5,0,14.7-1.2,21.7c-3.4-1.1-5.1-6-9.8-3.5
			c0.2,1.3,0.2,2.9,0.8,4.1c2.9,5.1,6.1,10.1,9.2,15.1c0.9,1.4,2.1,2.9,2.3,4.4c0.9,10.5,1.6,21.1,2.4,31.6c0.1,0.7-0.1,1.8-0.5,2.3
			c-5.3,5.6-10.6,11.2-16.2,16.5c-2,1.9-4.7,1.4-7.3,0.2c5-1.5,6.9-5.5,8.8-9.7c1-2.3,1.2-4-0.1-6.6c-1.1-2.3-0.5-5.6-0.2-8.4
			c1.2-10-3.8-18.3-10.4-21.7c-9.8-5.1-22-3-29.9,7.5c-3.7,5-5.2,9.7-4.6,15.7c0.5,4.6-0.1,9.3-0.1,14c0,6.8,4,11.6,8.2,16.3
			c0.7,0.8,1.4,1.5,1.8,2.5c0.2,0.5,0,1.7-0.4,2c-2.3,1.4-4.8,2.6-7.2,3.9c-1.1-4.7-2.3-9.4-3.2-14.2c-1.4-7.4-2.5-14.8-3.8-22.2
			c-1.6-9.3,2.4-16.8,8-23.4c5.6-6.6,7.1-14.3,8.5-22.3c1.5-8.3,2.9-16.5,4.2-24.9c0.4-2.4,0.4-4.9,0-7.3c-1.3-8.1,0.6-16.5,8.4-21
			c0.4-0.2,1-0.3,1.2-0.6c0.9-1.2,1.6-2.5,2.4-3.8c-1.3-0.2-2.6-0.4-4-0.5c-0.8-0.1-1.5,0-3.1,0c0.9-2.6,1.7-4.8,2.5-7.1
			c0.8-2.2,1.8-4.5-0.6-7.1c-1.3,2.2-2.4,4.2-3.5,6.1c-0.2,0-0.4-0.1-0.7-0.1c0-1.4,0.1-2.8,0-4.2c-0.2-1.3-0.7-2.6-1.1-4
			c-1.1,0.8-2.4,1.5-3.2,2.5c-1.1,1.4-1.9,3-3.1,5c-0.2-2.2-0.1-3.8-0.6-5.3c-0.2-0.8-1.2-1.8-2-1.9c-0.6-0.1-1.7,0.9-2,1.7
			c-0.5,1.2-0.5,2.6-0.6,4c-0.2,2.5-0.3,5-0.6,7.4c-0.5,3.9-2.3,6.5-6.6,7c-1.3,0.2-2.5,1.5-3.7,2.3c1.1,1.2,1.9,2.7,3.2,3.4
			c3.2,1.8,5.2,8,2.9,10.6c-3.2,3.4-3.3,7.8-4.5,11.9c-0.6,2-0.8,4.2-1.4,6.9c-3.7-4.4-7.8-7.1-13-7.7c-3.8-0.5-7.4-1.3-11-3
			c-5.4-2.5-10.3,0.1-15,3c-8.9,5.5-14.1,14.4-20.5,22.1c-1.2,1.4-2.3,3-3.5,4.4c-0.3,0-0.7,0-1,0c-1.2-6.5-2.4-13-3.6-19.5
			c-0.5-2.5-1-5.1-1.2-7.6c-0.3-5.1,0.3-9.8,3.2-14.4c2.9-4.5,2.2-9.7,1-14.6c-0.2-0.9-1.7-1.5-2.5-2.2c-0.5,0.9-1.2,1.7-1.6,2.6
			c-0.4,0.8-0.5,1.7-0.9,3.3c-3.8-5.3-4.8-11.8-11.3-16c0.2,3.6,0.3,6.2,0.4,9.7c-1.2-2.1-2.1-3.7-3-5.3c-0.6-1-1-2.2-1.9-2.8
			c-0.8-0.5-2.3-0.7-3-0.3c-0.5,0.3-0.7,2.1-0.3,2.9c1.4,3,3.1,5.9,4.4,9c-2.5-2.2-5-4.5-7.4-6.7c-2.5,2-2.5,2.5,0.1,6.6
			c1.4,2.1,3.1,4,4.6,6c-0.1,0.3-0.3,0.6-0.4,0.9c-1.2-0.3-2.3-0.7-3.5-0.7c-1.4-0.1-3.6-0.4-4.2,0.3c-1.3,1.9,0.5,3.1,2.1,3.8
			c1.8,0.9,3.7,1.6,5.6,2.3c2.9,1,5.5,4.4,5.6,7.5c0.1,2.5,0,5,0.1,7.5c0.1,2.2-0.8,3.4-2.4,5c-1.5,1.5-2.1,4.9-1.7,7.3
			c1.2,7.3,3.4,14.4,4.7,21.6c1.1,6.3,1.4,12.6,2.1,19c0.9,7.9,1.1,15.9,3,23.5c1.5,6.2,5.3,11.7,7.6,17.8
			c2.5,6.9,4.1,14.1,6.7,21.1c2.1,5.8,1.4,11.6,1.1,17.4c-0.1,1.7-1.2,3.4-2,4.9c-1.3,2.5-1,4.5,2,4.8c4.6,0.6,4.8,4.2,5.5,7.4
			c0.1,0.4,0,1-0.2,1.3c-4.7,4.4-3.4,10.4-3.8,15.8c-0.2,3.4-1.1,4.7-4.5,4.3c-1.8-0.2-3.7,0.1-5.5-0.1c-1.3-0.2-3.5-0.9-3.5-1.3
			c0-1.7,0.3-3.6,1.3-5c3.9-5.5,7.2-11.1,7.5-18c0-0.7-1.1-2-1.9-2.2c-3.3-0.9-3.1-3.1-2.4-5.6c1.5-5.1,3.1-10.1,4.4-15.3
			c0.7-2.9,0.1-5.3-2.9-7.2c-2-1.3-3.2-4.2-4.4-6.6c-4.1-8.1-7.2-16.4-8.2-25.5c-0.5-5-5-6.9-8.5-9.2c-4.2-2.8-9-4.6-13.8-7
			c1.1-3.2,2.5-5.3,6.7-5.4c5.5-0.1,9.8-7.6,8.5-13.4c-0.3-1.4-0.4-3.2,0.1-4.5c3.1-7.5,2.5-15-0.6-22c-1.4-3.3-4.7-6.4-8-8
			c-10.6-5.3-21.4-5.1-31.3,2c-4.7,3.3-6.5,8.5-8.2,13.8c-0.5,1.5-1.2,2.9-2.1,4.2c-2.9,4.6-1.3,9.3-0.4,13.9
			c0.7,3.7,1.6,7.3,2.4,11c-0.4,0.1-0.9,0.2-1.3,0.4c-0.6-2-1.6-3.9-1.8-5.9c-1.1-9.5-2.4-19-2.9-28.5c-0.5-9.3-0.2-18.7-0.2-28
			c0-2.4-0.3-4.4-2.7-5.8c-0.9-0.6-1.6-2.1-1.7-3.3c-0.3-2.3,0.1-4.6-0.2-6.8c-0.2-1.6-1-3.2-1.6-4.8c-1.1-3-0.6-5.6,1.6-7.8
			c5.8-5.8,5.3-13.7,7.3-20.8c0.1-0.4-0.1-0.9-0.4-2.5c-2.2,2.1-4,3.7-5.7,5.3c-0.2-0.1-0.5-0.1-0.7-0.2c0.3-1.3,0.6-2.6,0.8-4
			c0.4-3,1-6,1.1-9c0-0.9-1.4-1.9-2.2-2.8c-0.8,0.8-1.9,1.5-2.3,2.4c-0.9,2.2-1.3,4.5-2,6.8c-0.3,0-0.6,0-0.9-0.1
			c0-2.1,0.2-4.2-0.1-6.3c-0.2-1.8-0.8-3.6-1.5-5.2c-0.3-0.8-1.4-1.6-2.2-1.7c-0.6-0.1-1.6,0.9-1.8,1.7c-0.6,1.5-0.9,3.2-1.4,5.2
			c-0.6-0.7-1.1-1.1-1.4-1.6c-1.3-2-2.7-1.4-3.1,0.4c-0.6,2.4-0.7,4.9-0.8,7.4c-0.1,2.3,0,4.5,0,7.7c-1.8-2.8-2.9-5.1-4.4-7
			c-0.6-0.8-2-1.1-3.1-1.5c-0.2,1.1-0.8,2.4-0.5,3.4c2.9,8.9,4.2,18.4,9.1,26.7c0.8,1.3,0.9,4,0.1,5.1c-1.6,2.1-0.9,3.7-0.3,5.7
			c0.9,3.5,2.1,7-0.8,10.3c-0.6,0.6-0.5,2-0.5,3c0.4,16.3,1,32.6,1.3,48.9c0.1,6.7-0.8,13.5-0.5,20.2c0.5,11.3,1.5,22.5,2.3,33.7
			c0.4,6.3,0.8,12.5,1.4,18.8c0.9,10.9,2,21.8,3,32.6c0.1,0.9,0.3,2.2,0.8,2.5c6,3,6.8,8.6,7.3,14.4c0,0.5,0.1,0.9,0.2,1.4
			c0,0.1-0.1,0.2-0.3,0.8c-1,0.1-2.1,0.3-3.3,0.3c-6,0-12.1,0-18.1,0.1c-2.3,0-3.1-0.9-3-3c0.1-0.9,0-1.8,0-2.7
			c0-79.5,0-159,0-238.4c0-0.6,0.1-1.1,0-1.7c-0.4-2.9,0.8-4,3.8-4C27.9,9.4,42,9.4,56,9.3C89.4,9.2,122.9,9.1,156.3,9
			c32.5-0.1,65.1-0.1,97.6-0.2c4.1,0,8.2,0.1,12.3-0.1c3-0.2,3.7,1,3.7,3.7C269.9,28.2,270,44.1,270,60z"/>
	</g>
</g>
</svg>
