<?xml version="1.0" encoding="utf-8"?>
<!-- Generator: Adobe Illustrator 22.1.0, SVG Export Plug-In . SVG Version: 6.00 Build 0)  -->
<svg version="1.1" id="Layer_1" xmlns="http://www.w3.org/2000/svg" xmlns:xlink="http://www.w3.org/1999/xlink" x="0px" y="0px"
	 viewBox="0 0 271.8 225.5" style="enable-background:new 0 0 271.8 225.5;" xml:space="preserve">
<style type="text/css">
	.st0{fill:none;stroke:#FFE60E;stroke-width:3;stroke-miterlimit:10;}
</style>
<path class="st0" d="M249.8,80.8C262.4,68.2,266.2,50,261.2,34l-16.6,16.6c-5.9,5.9-15.5,5.9-21.5,0l-8.2-8.2
	c-5.9-5.9-5.9-15.5,0-21.5l17-17C215.7-1.6,197,2.1,184,15c-12.9,12.9-16.7,31.5-11.2,47.7l-0.2-0.2c0,0-14.5,23.6-25.1,34.3
	l-11.1,11.1L99.6,71.1L119.7,51l-23-23.1c7.8-7.7,21.1-19.5,33.8-24.4c-0.4-1.6-1.6-2.4-3.6-2.4C113.1,1,95.5,10.2,87,18.7
	L27.8,77.8l7.6,7.6L24.6,96.3L24,95.7c-2.7-2.7-7-2.7-9.7,0l-5.1,5.1c-2.7,2.7-2.7,7,0,9.7l19,19c2.7,2.7,7,2.7,9.7,0l5.1-5.1
	c2.7-2.7,2.7-7,0-9.7l-1.1-1.1l10.8-10.8l7.6,7.6l20.2-20.2l36.8,36.8l-56.1,56.1l-9.9,9.9l-6.4,6.4c-4.7,4.7-4.7,12.3,0,17l4.2,4.2
	c4.7,4.7,12.3,4.7,17,0l6.4-6.4l9.9-9.9l56.1-56.1l1.1,1.1c-0.8,4.4,0.5,9.2,3.9,12.6l58.4,58.4c5.6,5.6,14.6,5.6,20.1,0l7.7-7.7
	c5.5-5.6,5.5-14.6,0-20.1l-58.4-58.4c-3.4-3.4-8.2-4.7-12.6-3.9l-1.1-1.1l11.1-11.1c10.6-10.6,33.9-25.4,33.9-25.4L202,92
	C218.2,97.5,236.8,93.8,249.8,80.8z"/>
</svg>
