<?xml version="1.0" encoding="utf-8"?>
<!-- Generator: Adobe Illustrator 22.1.0, SVG Export Plug-In . SVG Version: 6.00 Build 0)  -->
<svg version="1.1" id="Layer_1" xmlns="http://www.w3.org/2000/svg" xmlns:xlink="http://www.w3.org/1999/xlink" x="0px" y="0px"
	 viewBox="0 0 345.7 314.5" style="enable-background:new 0 0 345.7 314.5;" xml:space="preserve">
<style type="text/css">
	.st0{fill:none;stroke:#FFCACA;stroke-width:3;stroke-miterlimit:10;}
	.st1{fill:#FF00FF;}
	.st2{fill:#0000FF;}
	.st3{fill:#00FFFF;}
	.st4{fill:#00FF00;}
	.st5{fill:#FFFF00;}
	.st6{fill:#FF9900;}
	.st7{fill:#FF0000;}
	.st8{fill:#FFFFFF;}
	.st9{fill:none;stroke:#000099;stroke-width:3;stroke-miterlimit:10;}
	.st10{fill:#000099;}
	.st11{fill:#FFFFFF;stroke:#FFE60E;stroke-width:3;stroke-miterlimit:10;}
	.st12{fill:none;stroke:#FFE60E;stroke-width:3;stroke-miterlimit:10;}
</style>
<g id="Layer_2_1_">
	
		<ellipse transform="matrix(0.9812 -0.1932 0.1932 0.9812 -20.2439 56.3266)" class="st0" cx="278.7" cy="132" rx="61.4" ry="132.4"/>
	
		<ellipse transform="matrix(0.9681 -0.2507 0.2507 0.9681 -24.5626 70.2988)" class="st0" cx="263.7" cy="131.6" rx="16.5" ry="29.3"/>
	<path class="st0" d="M87.5,130.5c-12,3.1-17.3,22.9-11.8,44.2c5.5,21.3,20,36.7,32,33.6"/>
	<path class="st0" d="M15.5,146.5c-12,3.1-17.3,22.9-11.8,44.2c5.5,21.3,19.7,36,31.7,32.9"/>
	
		<ellipse transform="matrix(0.9681 -0.2507 0.2507 0.9681 -24.5628 70.2994)" class="st0" cx="263.7" cy="131.6" rx="10.8" ry="19.2"/>
	<path class="st0" d="M15.5,146.5c155.3-22.8,202.7-98.7,202.7-98.7"/>
	<path class="st0" d="M35.4,223.6c136.8-41.7,215.1,3.3,215.1,3.3"/>
	<line class="st0" x1="213.2" y1="109.1" x2="256.3" y2="103.3"/>
	<line class="st0" x1="226.6" y1="175.6" x2="271" y2="159.9"/>
	<path class="st0" d="M107.7,208.3l15.7,32.1l-5.1,9.3c0,0,23.7,33,27,38.7s0,9,0,9l-20,15L90,249.7l-9.3-6.3l-15.9-27.6"/>
	<path class="st0" d="M116.8,207.3l17.5,33.7l-5,8c0,0,22.8,31,26.3,38c3.7,7.3,1.2,10.8,1.2,10.8L137.6,313l-12.3-0.7"/>
	<line class="st0" x1="129.3" y1="249" x2="118.3" y2="249.7"/>
	<line class="st0" x1="134.3" y1="241" x2="123.4" y2="240.3"/>
</g>
</svg>
