<?xml version="1.0" encoding="utf-8"?>
<!-- Generator: Adobe Illustrator 22.1.0, SVG Export Plug-In . SVG Version: 6.00 Build 0)  -->
<svg version="1.1" id="Layer_1" xmlns="http://www.w3.org/2000/svg" xmlns:xlink="http://www.w3.org/1999/xlink" x="0px" y="0px"
	 viewBox="0 0 228 228.4" style="enable-background:new 0 0 228 228.4;" xml:space="preserve">
<style type="text/css">
	.st0{fill:#FFFFFF;stroke:#FFE60E;stroke-width:3;stroke-miterlimit:10;}
	.st1{fill:none;stroke:#FFCACA;stroke-width:3;stroke-miterlimit:10;}
	.st2{fill:#FF00FF;}
	.st3{fill:#0000FF;}
	.st4{fill:#00FFFF;}
	.st5{fill:#00FF00;}
	.st6{fill:#FFFF00;}
	.st7{fill:#FF9900;}
	.st8{fill:#FF0000;}
	.st9{fill:#FFFFFF;}
	.st10{fill:none;stroke:#000099;stroke-width:3;stroke-miterlimit:10;}
	.st11{fill:#000099;}
	.st12{fill:none;stroke:#FFE60E;stroke-width:3;stroke-miterlimit:10;}
</style>
<g>
	<circle class="st10" cx="78.3" cy="78.3" r="76.8"/>
	<g>
		<path class="st11" d="M18,79.1c-0.2-7.3,1.2-14.7,3.9-21.5c1.3-3.5,3-6.8,4.9-10c2-3.2,4.2-6.1,6.7-8.9c2.5-2.7,5.2-5.3,8.2-7.6
			c3-2.2,6.1-4.3,9.4-6c6.6-3.4,13.8-5.5,21-6.1c-6.9,2.2-13.5,5.1-19.5,8.8c-3,1.9-5.9,3.9-8.5,6.2c-2.7,2.2-5.2,4.7-7.6,7.3
			c-2.4,2.6-4.5,5.4-6.5,8.3c-2,2.9-3.7,6-5.3,9.1C21.6,65.1,19.4,71.9,18,79.1z"/>
	</g>
	<line class="st10" x1="132.5" y1="132.5" x2="174.1" y2="174.1"/>
	<path class="st11" d="M226,224l-2.4,2.4c-2.7,2.7-7.2,2.7-9.9,0L155.3,168c-2.7-2.7-2.7-7.2,0-9.9l2.4-2.4c2.7-2.7,7.2-2.7,9.9,0
		l58.4,58.4C228.7,216.8,228.7,221.3,226,224z"/>
</g>
</svg>
