<?xml version="1.0" encoding="utf-8"?>
<!-- Generator: Adobe Illustrator 22.1.0, SVG Export Plug-In . SVG Version: 6.00 Build 0)  -->
<svg version="1.1" id="Layer_1" xmlns="http://www.w3.org/2000/svg" xmlns:xlink="http://www.w3.org/1999/xlink" x="0px" y="0px"
	 viewBox="0 0 505.2 178.1" style="enable-background:new 0 0 505.2 178.1;" xml:space="preserve">
<style type="text/css">
	.st0{fill:none;stroke:#FFCACA;stroke-width:3;stroke-miterlimit:10;}
	.st1{fill:#FF00FF;}
	.st2{fill:#0000FF;}
	.st3{fill:#00FFFF;}
	.st4{fill:#00FF00;}
	.st5{fill:#FFFF00;}
	.st6{fill:#FF9900;}
	.st7{fill:#FF0000;}
	.st8{fill:#FFFFFF;}
	.st9{fill:none;stroke:#000099;stroke-width:3;stroke-miterlimit:10;}
	.st10{fill:#000099;}
	.st11{fill:#FFFFFF;stroke:#FFE60E;stroke-width:3;stroke-miterlimit:10;}
	.st12{fill:none;stroke:#FFE60E;stroke-width:3;stroke-miterlimit:10;}
</style>
<g>
	<path class="st1" d="M420.8,160.2C378.2,104,317.2,71.7,253.5,71.7c-62,0-121.8,30.8-164.1,84.4l-9.2-7.2
		C124.8,92.4,187.9,60,253.5,60c67.4,0,131.8,34,176.6,93.2L420.8,160.2z"/>
	<path class="st2" d="M427.3,150.6C383.1,94.3,319.7,62,253.4,62C189,62,126.8,92.8,82.8,146.5l-9-7.4
		C120,82.6,185.5,50.3,253.4,50.3c69.9,0,136.6,33.9,183.1,93.1L427.3,150.6z"/>
	<path class="st3" d="M433.7,143.8c-45.9-58.4-111.6-91.9-180.3-91.9c-66.8,0-131.3,31.9-176.9,87.6l-9-7.4
		c47.8-58.4,115.6-91.9,185.9-91.9c72.3,0,141.4,35.1,189.5,96.3L433.7,143.8z"/>
	<path class="st4" d="M440,136.9c-47.5-60.4-115.5-95.1-186.7-95.1c-69.2,0-135.9,33.1-183.1,90.7l-9-7.4
		c49.4-60.4,119.5-95,192.2-95c74.8,0,146.1,36.3,195.8,99.6L440,136.9z"/>
	<path class="st5" d="M446.3,130.1c-49.1-62.5-119.5-98.3-193-98.3c-71.5,0-140.6,34.2-189.4,93.8l-9-7.4
		c51-62.3,123.4-98.1,198.4-98.1c77.2,0,150.9,37.5,202.2,102.8L446.3,130.1z"/>
	<path class="st6" d="M452.6,123.3C401.9,58.8,329.2,21.7,253.2,21.7c-73.9,0-145.2,35.3-195.6,96.9l-9-7.4
		C101.2,46.9,175.8,10.1,253.2,10.1c79.6,0,155.6,38.7,208.6,106.1L452.6,123.3z"/>
	<path class="st7" d="M458.9,116.5C406.6,49.9,331.6,11.7,253.1,11.7c-76.3,0-149.8,36.4-201.9,100l-9-7.4C96.5,38,173.4,0,253.1,0
		c82,0,160.4,39.8,215,109.3L458.9,116.5z"/>
	<g>
		<path class="st8" d="M70.1,177.6c-22.3,0-41.3-10.4-43.1-23.6l0-0.4l-0.3-0.1c-15.1-3-26.1-15.4-26.1-29.5
			c0-16.6,14.8-30.2,33.1-30.2c1.2,0,2.5,0.1,3.9,0.2l0.3,0l0.2-0.3c5.4-8.9,18.6-14.6,33.5-14.6c19.9,0,36,10.3,36,22.9
			c0,1.9-0.4,3.9-1.3,5.9l-0.3,0.7l0.8-0.1c2.7-0.2,5-0.3,7.1-0.3c28.7,0,52.1,11.6,52.1,25.8s-23.4,25.8-52.1,25.8
			c-0.5,0-1.1,0-1.6,0l-1.2,0l-0.1,0.3C104.9,170.7,88.5,177.6,70.1,177.6z"/>
		<path d="M71.5,79.8c19.6,0,35.5,10,35.5,22.4c0,1.9-0.4,3.8-1.2,5.7l-0.6,1.5l1.6-0.1c2.7-0.2,4.9-0.3,7.1-0.3
			c28.4,0,51.6,11.3,51.6,25.3s-23.1,25.3-51.6,25.3c-0.5,0-1.1,0-1.6,0c-0.3,0-0.6,0-0.9,0l-0.6,0l-0.3,0.5
			c-6,10.2-22.2,17.1-40.4,17.1c-22.1,0-40.8-10.2-42.6-23.2l-0.1-0.7l-0.7-0.1C11.8,150.1,1,138,1,124.1
			c0-16.4,14.6-29.7,32.6-29.7c1.2,0,2.5,0.1,3.9,0.2l0.6,0.1l0.3-0.5C43.7,85.6,57,79.8,71.5,79.8 M71.5,78.8
			c-15.5,0-28.6,6.2-34,14.8c-1.3-0.1-2.6-0.2-4-0.2C15,93.4,0,107.2,0,124.1c0,14.7,11.3,27,26.5,30c1.9,13.5,20.7,24.1,43.6,24.1
			c19.1,0,35.3-7.3,41.3-17.6c0.8,0,1.7,0.1,2.5,0.1c29,0,52.6-11.8,52.6-26.3c0-14.5-23.5-26.3-52.6-26.3c-2.4,0-4.8,0.1-7.1,0.3
			c0.8-2,1.3-4,1.3-6.1C108,89.3,91.7,78.8,71.5,78.8L71.5,78.8z"/>
	</g>
	<g>
		<path class="st8" d="M414.8,166c-22.4,0-40.6-6.2-40.6-13.8c0-2.6,2.2-5.1,6.5-7.4l1.3-0.7l-1.4-0.2c-15.2-2.6-25.5-9.2-25.5-16.5
			c0-4.7,4.1-9.1,11.5-12.4l0.4-0.2l-0.1-0.4c-0.5-1.8-0.8-3.4-0.8-5.1c0-15.5,21.3-28.1,47.4-28.1c26.2,0,47.4,12.6,47.4,28.1
			c0,0.1,0,0.2,0,0.2l0,0.5l0.5,0c24.7,1.4,43.4,10.6,43.4,21.2c0,11.5-22,21.1-48.9,21.4l-0.4,0l-0.1,0.4
			C453.9,160.3,436.1,166,414.8,166z"/>
		<path d="M413.4,81.8c25.9,0,46.9,12.4,46.9,27.6c0,0.1,0,0.1,0,0.2l0,1l1,0.1c24.5,1.4,42.9,10.3,42.9,20.7
			c0,11.2-21.7,20.6-48.4,20.9l-0.8,0l-0.1,0.8c-1.3,6.9-19.2,12.5-40,12.5c-24,0-40.1-6.9-40.1-13.3c0-3,3.4-5.4,6.2-6.9l2.6-1.4
			l-2.9-0.5c-15-2.5-25.1-9-25.1-16c0-4.5,4-8.7,11.2-12l0.8-0.4l-0.3-0.8c-0.5-1.7-0.8-3.3-0.8-4.9
			C366.5,94.2,387.5,81.8,413.4,81.8 M413.4,80.8c-26.5,0-47.9,12.8-47.9,28.6c0,1.8,0.3,3.5,0.8,5.2c-7.3,3.3-11.8,7.8-11.8,12.9
			c0,7.8,10.8,14.4,25.9,17c-4.2,2.2-6.7,4.9-6.7,7.8c0,7.9,18.4,14.3,41.1,14.3c21.8,0,39.6-5.9,40.9-13.4
			c27.4-0.3,49.4-10,49.4-21.9c0-11.1-19.1-20.2-43.8-21.7c0-0.1,0-0.1,0-0.2C461.4,93.6,439.9,80.8,413.4,80.8L413.4,80.8z"/>
	</g>
</g>
</svg>
