<?xml version="1.0" encoding="utf-8"?>
<!-- Generator: Adobe Illustrator 22.1.0, SVG Export Plug-In . SVG Version: 6.00 Build 0)  -->
<svg version="1.1" id="Layer_1" xmlns="http://www.w3.org/2000/svg" xmlns:xlink="http://www.w3.org/1999/xlink" x="0px" y="0px"
	 viewBox="0 0 623 796.5" style="enable-background:new 0 0 623 796.5;" xml:space="preserve">
<style type="text/css">
	.st0{fill:#000099;stroke:#FFE60E;stroke-width:6;stroke-miterlimit:10;}
	.st1{fill:#000099;stroke:#FFE60E;stroke-width:5;stroke-miterlimit:10;}
	.st2{fill:#000099;stroke:#FFE60E;stroke-width:3;stroke-miterlimit:10;}
	.st3{fill:#000099;stroke:#FFE60E;stroke-width:2;stroke-miterlimit:10;}
	.st4{fill:#FFE60E;}
</style>
<path class="st0" d="M609.5,795h-596c-6.6,0-12-5.4-12-12V113c0-6.6,5.4-12,12-12h596c6.6,0,12,5.4,12,12v670
	C621.5,789.6,616.1,795,609.5,795z"/>
<path class="st0" d="M506.3,111.3v-6.2c0.1-27.4-24-49.7-53.5-49.7H171.1c-29.4,0-53.5,22.4-53.5,49.6v6.3v49.3h45.8l-0.1-0.2
	c2.6,0.4,5.2,0.5,7.9,0.5h281.6c2.7,0,5.3-0.2,7.9-0.5l-0.1,0.1h45.8V111.3L506.3,111.3z"/>
<path class="st1" d="M211.3,88.1c0-47.8,45.1-86.6,100.7-86.6s100.7,38.8,100.7,86.6"/>
<g>
	
		<ellipse transform="matrix(0.1735 -0.9848 0.9848 0.1735 196.5159 358.7457)" class="st2" cx="312" cy="62.3" rx="30.3" ry="30.3"/>
	<path class="st3" d="M312,32.2c16.5,0,30,13.4,30,30s-13.4,30-30,30s-30-13.4-30-30S295.5,32.2,312,32.2 M312,31.5
		c-17,0-30.7,13.8-30.7,30.7S295,93,312,93s30.7-13.8,30.7-30.7S329,31.5,312,31.5L312,31.5z"/>
</g>
<path class="st4" d="M144.1,238.7c6.3,1.1,11.5,4.1,11.5,10.5c0,4.5-2.5,8-6.4,10.1c-3.4,1.9-6.8,2.6-11.4,2.6h-16.2V260
	c5.6-0.5,5.9-1.1,5.9-6.3v-26.4c0-5.5-0.6-5.9-5.9-6.4v-1.8h17.3c4.9,0,8,0.9,10.1,2.3c2.3,1.6,3.9,4,3.9,7.4
	C152.9,234.9,147.8,237.8,144.1,238.7z M136.5,237.9c7.2,0,10.2-2.9,10.2-8.3c0-4.6-2.8-8.2-9.2-8.2c-1.8,0-3,0.2-3.7,0.7
	c-0.5,0.4-0.7,1.1-0.7,3.2v12.6H136.5z M133.2,253.6c0,4.7,1.1,5.9,5.8,5.9c5.1,0,10.1-2.8,10.1-9.7c0-6.7-4.7-9.6-12.8-9.6h-3.2
	V253.6z"/>
<path class="st4" d="M215.3,236.6c-4.2,0.3-5.7,1.3-5.8,4.3c-0.1,1.5-0.2,4.3-0.2,10.3v7.1c0,6.7-0.8,11.9-4.6,15.9
	c-3.1,3.2-7.6,4.2-12.1,4.2c-3.8,0-7.9-0.8-10.8-3c-4-3-5.9-7.6-5.9-15.3v-16.8c0-5.9-0.5-6.3-5.8-6.8v-1.8h17.3v1.8
	c-5.3,0.3-5.8,0.9-5.8,6.8v16.5c0,9.6,4.5,14.9,12.5,14.9c9.4,0,12.3-5.8,12.3-16.7v-6.7c0-6.1-0.2-8.6-0.3-10.3
	c-0.2-3-1.7-4.1-6.6-4.3v-1.8h15.8V236.6z"/>
<path class="st4" d="M261.9,251c-0.4,2-2.4,8.9-3,10.9h-30.6V260c6-0.6,6.5-0.9,6.5-6.5v-26.2c0-5.6-0.7-5.9-5.9-6.5v-1.8h17.7v1.8
	c-5.3,0.5-6,0.8-6,6.5v26.8c0,4,0.5,4.9,4.3,5c0.1,0.1,4.8,0.1,5.2,0.1c3.4,0,4.3-0.4,5.9-2c1.6-1.7,3-4.3,4-6.8L261.9,251z"/>
<path class="st4" d="M309.2,266.6c-0.4,2-2.4,8.9-3,10.9h-30.6v-1.8c6-0.6,6.5-0.9,6.5-6.5v-26.2c0-5.6-0.7-5.9-5.9-6.5v-1.8h17.7
	v1.8c-5.3,0.5-6,0.8-6,6.5v26.8c0,4,0.5,4.9,4.3,5c0.1,0.1,4.8,0.1,5.2,0.1c3.4,0,4.3-0.4,5.9-2c1.6-1.7,3-4.3,4-6.8L309.2,266.6z"
	/>
<path class="st4" d="M357.7,251.4c-0.4,1.7-2.2,8.5-2.8,10.5h-32V260c6.1-0.5,6.6-1.1,6.6-6.5v-26c0-5.9-0.7-6.2-5.7-6.7v-1.8h20.2
	c6.2,0,8.8-0.1,9.6-0.1c0.1,1.6,0.3,6.6,0.6,10.1l-2,0.3c-0.6-2.2-1.3-3.6-2-5c-1.1-2.2-2.6-2.6-6.5-2.6h-6.3c-2,0-2.2,0.2-2.2,2.1
	v14.6h7.3c4.9,0,5.3-1,6.1-5.5h2v13.6h-2c-0.9-4.7-1.4-5.4-6.1-5.4h-7.2v13.1c0,4.6,1.4,5,4.7,5.1h6.1c4,0,4.7-0.6,6.1-2.3
	c1.3-1.4,2.6-4.1,3.6-6.1L357.7,251.4z"/>
<path class="st4" d="M406.9,245.1c-0.6-2.1-1.4-4.3-2.1-5.5c-1.1-1.8-1.7-2.2-5.3-2.2h-6.6v32.1c0,5.1,0.5,5.9,6.8,6.3v1.8h-19.2
	v-1.8c6.1-0.4,6.7-1.1,6.7-6.3v-32.1h-6c-3.6,0-4.7,0.4-5.8,2.4c-0.8,1.3-1.3,2.9-2.2,5.3h-2c0.4-4,0.8-8.2,1-11.9h1.5
	c1,1.6,1.7,1.5,3.6,1.5h26.1c1.8,0,2.4-0.3,3.4-1.5h1.6c0,3.1,0.3,7.8,0.6,11.7L406.9,245.1z"/>
<path class="st4" d="M424.1,261.9V260c5.4-0.6,5.9-0.9,5.9-6.5v-26.2c0-5.7-0.5-5.9-5.9-6.5v-1.8h17.7v1.8c-5.5,0.6-6,0.9-6,6.5
	v26.2c0,5.7,0.5,5.9,6,6.5v1.8H424.1z"/>
<path class="st4" d="M503.6,236.6c-4.2,0.5-5.6,1.1-5.8,4.2c-0.1,2.1-0.2,4.9-0.2,11v26.4h-2.5l-28.2-34.5v16.5
	c0,5.9,0.2,8.9,0.3,10.8c0.1,3.4,1.8,4.3,6.5,4.7v1.8h-16v-1.8c4.1-0.3,5.7-1.3,5.9-4.5c0.2-2.1,0.3-5.1,0.3-11.1v-16.8
	c0-1.8-0.1-2.9-1.3-4.3c-1.3-1.6-2.6-2-5.9-2.4v-1.8h9.9l27.9,33.1v-16.1c0-6.1-0.1-9-0.3-10.9c-0.2-3-1.7-3.9-7-4.2v-1.8h16.3
	V236.6z"/>
</svg>
