<?xml version="1.0" encoding="utf-8"?>
<!-- Generator: Adobe Illustrator 22.1.0, SVG Export Plug-In . SVG Version: 6.00 Build 0)  -->
<svg version="1.1" id="Layer_1" xmlns="http://www.w3.org/2000/svg" xmlns:xlink="http://www.w3.org/1999/xlink" x="0px" y="0px"
	 viewBox="0 0 100 100" style="enable-background:new 0 0 100 100;" xml:space="preserve">
<style type="text/css">
	.st0{fill:#FFFFFF;}
	.st1{fill:none;stroke:#FFFFFF;stroke-width:3;stroke-miterlimit:10;}
</style>
<g>
	<path class="st0" d="M18.4,54.2c-0.6,0.8-1.6,1.5-2.5,1.5c-1.8,0-2.9-1.5-2.9-3c0-1.1,0.5-2.1,1.5-2.8c0.8-0.6,1.6-0.8,2.2-0.8
		c0.7,0,1.1,0.2,1.3,0.4c0.2,0.2,0.2,0.3,0.2,0.4c0,0.3-0.4,0.7-0.5,0.7c-0.1,0-0.1,0-0.3-0.1c-0.4-0.4-0.9-0.6-1.5-0.6
		c-1,0-1.8,0.8-1.8,2.3c0,2,1.4,2.7,2.2,2.7c0.6,0,1.1-0.2,1.8-0.8L18.4,54.2z"/>
	<path class="st0" d="M20.9,55.5v-0.4c0.9-0.1,1-0.2,1-1.1V47c0-0.9-0.1-1-1-1.1v-0.4c0.8-0.1,1.7-0.3,2.1-0.5c0,0.7,0,1.4,0,2.1V54
		c0,1,0.1,1,1,1.1v0.4H20.9z"/>
</g>
<line class="st1" x1="79.8" y1="80.7" x2="17.9" y2="18.8"/>
<line class="st1" x1="17.2" y1="81.3" x2="79" y2="19.4"/>
<g>
	<path class="st0" d="M48.5,29.8c1.8,0,3.2,1.4,3.2,3.3c0,2.4-1.8,3.5-3.2,3.5c-2,0-3.2-1.6-3.2-3.3C45.3,30.9,47.1,29.8,48.5,29.8z
		 M48.3,30.3c-0.9,0-1.7,0.9-1.7,2.6c0,1.9,0.8,3.2,2,3.2c0.9,0,1.7-0.7,1.7-2.7C50.3,31.7,49.6,30.3,48.3,30.3z"/>
</g>
<g>
	<path class="st0" d="M77.9,50.7c-0.3-0.8-0.7-1.4-1.6-1.4c-0.5,0-0.9,0.4-0.9,0.9c0,0.6,0.5,0.9,1.3,1.3c1.2,0.5,1.9,1,1.9,2
		c0,1.3-1.2,2-2.4,2c-0.8,0-1.4-0.2-1.7-0.4c-0.1-0.4-0.2-1.3-0.3-1.7l0.4-0.1c0.3,0.9,0.8,1.7,1.8,1.7c0.6,0,1-0.4,1-1
		c0-0.7-0.4-1-1.2-1.4c-0.9-0.4-1.9-0.9-1.9-2s0.9-1.9,2.3-1.9c0.6,0,1.1,0.1,1.4,0.2c0,0.4,0.1,1.3,0.2,1.6L77.9,50.7z"/>
	<path class="st0" d="M87,54.2c-0.9,1.2-2,1.4-2.4,1.4c-1.8,0-2.9-1.5-2.9-3.1c0-1,0.3-1.9,0.9-2.6c0.6-0.7,1.4-1.1,2.2-1.1
		c1.3,0,2.2,1.1,2.2,2.3c0,0.3-0.1,0.4-0.3,0.5c-0.3,0.1-2.2,0.2-3.9,0.2c0,2,1.2,2.8,2.2,2.8c0.6,0,1.2-0.2,1.7-0.7L87,54.2z
		 M84.5,49.4c-0.7,0-1.3,0.6-1.5,1.8c0.8,0,1.6,0,2.5,0c0.3,0,0.3-0.1,0.3-0.3C85.8,50.1,85.3,49.4,84.5,49.4z"/>
</g>
</svg>
