<?xml version="1.0" encoding="utf-8"?>
<!-- Generator: Adobe Illustrator 22.1.0, SVG Export Plug-In . SVG Version: 6.00 Build 0)  -->
<svg version="1.1" id="Layer_1" xmlns="http://www.w3.org/2000/svg" xmlns:xlink="http://www.w3.org/1999/xlink" x="0px" y="0px"
	 viewBox="0 0 100 100" style="enable-background:new 0 0 100 100;" xml:space="preserve">
<style type="text/css">
	.st0{fill:#FFFFFF;}
	.st1{fill:none;stroke:#FFFFFF;stroke-width:3;stroke-miterlimit:10;}
</style>
<path class="st0" d="M8,55.5v-0.4c0.9-0.1,1-0.2,1-1.2v-3.1c0-0.9,0-1-0.9-1.1v-0.4c0.8-0.1,1.5-0.3,2.1-0.6c0,0.6,0,1.3,0,1.9v3.3
	c0,1,0.1,1.1,1.1,1.2v0.4H8z M9.6,47.3c-0.4,0-0.8-0.4-0.8-0.8c0-0.5,0.4-0.8,0.8-0.8c0.4,0,0.8,0.3,0.8,0.8
	C10.4,47,10,47.3,9.6,47.3z"/>
<path class="st0" d="M18.4,55.5v-0.4c0.9-0.1,1-0.2,1-1.2v-2.5c0-1-0.4-1.7-1.4-1.7c-0.6,0-1.2,0.4-1.7,0.8V54c0,1,0.1,1.1,1,1.1
	v0.4h-3.2v-0.4c1-0.1,1.1-0.2,1.1-1.1v-3.1c0-1-0.1-1-0.9-1.1v-0.4c0.7-0.1,1.5-0.3,2.1-0.6c0,0.3,0,0.8,0,1.2
	c0.3-0.2,0.6-0.4,1-0.7c0.4-0.3,0.8-0.4,1.2-0.4c1.2,0,1.9,0.9,1.9,2.3V54c0,1,0.1,1.1,1,1.1v0.4H18.4z"/>
<line class="st1" x1="31.6" y1="93.5" x2="31.6" y2="6"/>
<line class="st1" x1="66.9" y1="94.1" x2="66.9" y2="6.6"/>
<g>
	<path class="st0" d="M53,55c-0.3,0.1-1.4,0.2-2.3,0.5c0-0.3,0-0.6,0-0.9c-0.3,0.2-0.6,0.4-0.9,0.5c-0.6,0.3-1,0.4-1.2,0.4
		c-1.2,0-2.7-1.2-2.7-3.2s1.8-3.5,3.8-3.5c0.2,0,0.7,0,1,0.2v-2.1c0-0.9-0.1-1-1.1-1.1v-0.4c0.7-0.1,1.8-0.3,2.3-0.5
		c0,0.5,0,1.2,0,1.8v7c0,0.8,0.1,0.8,0.6,0.9H53C53,54.6,53,55,53,55z M50.7,50.1c-0.3-0.5-1-0.7-1.5-0.7c-0.7,0-1.9,0.5-1.9,2.6
		c0,1.8,1.1,2.7,2,2.7c0.5,0,1.1-0.3,1.4-0.5V50.1z"/>
</g>
<g>
	<path class="st0" d="M82.6,54.2c-0.9,1.2-2,1.4-2.4,1.4c-1.8,0-2.9-1.5-2.9-3.1c0-1,0.3-1.9,0.9-2.6c0.6-0.7,1.4-1.1,2.2-1.1
		c1.3,0,2.2,1.1,2.2,2.3c0,0.3-0.1,0.4-0.3,0.5c-0.3,0.1-2.2,0.2-3.9,0.2c0,2,1.2,2.8,2.2,2.8c0.6,0,1.2-0.2,1.7-0.7L82.6,54.2z
		 M80.1,49.4c-0.7,0-1.3,0.6-1.5,1.8c0.8,0,1.6,0,2.5,0c0.3,0,0.3-0.1,0.3-0.3C81.4,50.1,80.9,49.4,80.1,49.4z"/>
	<path class="st0" d="M89,55.4V55c0.6-0.1,0.8-0.2,0.5-0.6l-1.1-1.7c-0.3,0.5-0.6,1-0.9,1.5s-0.2,0.6,0.5,0.7v0.4h-2.8V55
		c0.9-0.1,1.1-0.2,1.6-0.9c0.4-0.6,0.8-1.1,1.2-1.8l-1.3-2c-0.4-0.7-0.6-0.8-1.4-0.9V49h2.9v0.4c-0.6,0.1-0.7,0.2-0.4,0.6l0.9,1.3
		c0.3-0.4,0.6-0.9,0.8-1.4c0.2-0.4,0.2-0.5-0.5-0.6V49h2.7v0.4c-0.8,0.1-1.1,0.1-1.7,0.9c-0.2,0.3-0.6,0.8-1,1.5l1.4,2.2
		c0.6,0.8,0.7,0.9,1.6,1.1v0.4h-3V55.4z"/>
</g>
</svg>
