<?xml version="1.0" encoding="utf-8"?>
<!-- Generator: Adobe Illustrator 22.1.0, SVG Export Plug-In . SVG Version: 6.00 Build 0)  -->
<svg version="1.1" id="Layer_1" xmlns="http://www.w3.org/2000/svg" xmlns:xlink="http://www.w3.org/1999/xlink" x="0px" y="0px"
	 viewBox="0 0 131.5 83.7" style="enable-background:new 0 0 131.5 83.7;" xml:space="preserve">
<style type="text/css">
	.st0{fill:none;stroke:url(#SVGID_1_);stroke-miterlimit:10;}
</style>
<radialGradient id="SVGID_1_" cx="65.875" cy="41.875" r="55.4756" gradientUnits="userSpaceOnUse">
	<stop  offset="0" style="stop-color:#FFE60E"/>
	<stop  offset="8.900001e-02" style="stop-color:#FFE716"/>
	<stop  offset="0.228" style="stop-color:#FFE92C"/>
	<stop  offset="0.3995" style="stop-color:#FFED50"/>
	<stop  offset="0.5968" style="stop-color:#FFF283"/>
	<stop  offset="0.813" style="stop-color:#FFF9C2"/>
	<stop  offset="1" style="stop-color:#FFFFFF"/>
</radialGradient>
<polygon class="st0" points="65.9,21.3 79.9,1.8 79.5,23.3 105.1,9.7 90.5,29 122.5,24 96.5,37.3 128.8,41.9 96.5,46.5 122.5,59.7 
	90.5,54.7 105.1,74.1 79.5,60.4 79.9,82 65.9,62.5 51.9,82 52.2,60.4 26.7,74.1 41.3,54.7 9.2,59.7 35.2,46.5 3,41.9 35.2,37.3 
	9.2,24 41.3,29 26.7,9.7 52.2,23.3 51.9,1.8 "/>
</svg>
