<?xml version="1.0" encoding="utf-8"?>
<!-- Generator: Adobe Illustrator 16.0.0, SVG Export Plug-In . SVG Version: 6.00 Build 0)  -->
<!DOCTYPE svg PUBLIC "-//W3C//DTD SVG 1.1//EN" "http://www.w3.org/Graphics/SVG/1.1/DTD/svg11.dtd">
<svg version="1.1" id="Layer_1" xmlns="http://www.w3.org/2000/svg" xmlns:xlink="http://www.w3.org/1999/xlink" x="0px" y="0px"
	 width="131.5px" height="83.746px" viewBox="0 0 131.5 83.746" enable-background="new 0 0 131.5 83.746" xml:space="preserve">
<radialGradient id="SVGID_1_" cx="65.875" cy="41.875" r="55.0447" gradientUnits="userSpaceOnUse">
	<stop  offset="0" style="stop-color:#FFE60E"/>
	<stop  offset="0.089" style="stop-color:#FFE716"/>
	<stop  offset="0.228" style="stop-color:#FFE92C"/>
	<stop  offset="0.3995" style="stop-color:#FFED50"/>
	<stop  offset="0.5968" style="stop-color:#FFF283"/>
	<stop  offset="0.813" style="stop-color:#FFF9C2"/>
	<stop  offset="1" style="stop-color:#FFFFFF"/>
</radialGradient>
<polygon fill="url(#SVGID_1_)" points="65.875,20.4 80.479,0.004 80.111,22.527 106.791,8.297 91.529,28.486 125.001,23.24 
	97.865,37.096 131.5,41.875 97.865,46.654 125.001,60.51 91.529,55.264 106.791,75.453 80.111,61.223 80.479,83.746 65.875,63.35 
	51.272,83.746 51.638,61.223 24.958,75.453 40.221,55.264 6.749,60.51 33.885,46.654 0.25,41.875 33.885,37.096 6.749,23.24 
	40.221,28.486 24.958,8.297 51.638,22.527 51.272,0.004 "/>
</svg>
