<?xml version="1.0" encoding="utf-8"?>
<!-- Generator: Adobe Illustrator 22.1.0, SVG Export Plug-In . SVG Version: 6.00 Build 0)  -->
<svg version="1.1" id="Layer_1" xmlns="http://www.w3.org/2000/svg" xmlns:xlink="http://www.w3.org/1999/xlink" x="0px" y="0px"
	 viewBox="0 0 145 31.8" style="enable-background:new 0 0 145 31.8;" xml:space="preserve">
<style type="text/css">
	.st0{fill:none;stroke:#0B0F92;stroke-width:2;stroke-miterlimit:10;}
	.st1{fill:#0B0F92;}
</style>
<g>
	<path class="st1" d="M10.6,26.4l-0.2-0.7c1.6-0.8,1.7-1.1,1-1.9c-0.7-0.9-1.6-1.9-2.7-3.3l-5.4,1.9c0,1.3,0,2.4,0,3.5
		c0,1.8,0.4,1.9,2.6,1.4L6,28l-5.8,2L0,29.4c1.5-0.8,1.9-1.1,1.9-3.6l0.5-15l0.8-0.4c3.1,3.7,6.5,7.9,9.6,11.7
		c1.6,1.9,1.9,2,3.7,1.6l0.2,0.7L10.6,26.4z M3.4,13.9c0,2.4-0.1,5-0.1,7.3l4.7-1.7L3.4,13.9z"/>
	<path class="st1" d="M37.6,19.8c-0.3,0.1-0.6,0.1-1,0.2c-1.9,0.3-3,0-4.5-1.4c-1.2-1.1-2.5-2.6-3.6-3.7c-0.7-0.7-1.1-0.8-2.4-0.5
		l-0.9,0.2l0.9,4.1c0.5,2.2,0.8,2.3,2.9,2.1l0.2,0.7l-7,1.5L22,22.2c2.1-0.7,2.3-0.8,1.8-3L21.6,8.7c-0.5-2.2-0.8-2.2-2.9-2L18.6,6
		l6.6-1.4c1.9-0.4,3.2-0.4,4.4,0C30.8,5,31.7,6,32.1,7.6c0.5,2.2-0.7,3.9-2.4,5.2c0.6,0.7,2.1,2.2,3.2,3.2c1.3,1.2,1.9,1.7,2.6,2.2
		c0.9,0.6,1.5,0.8,2.2,0.8L37.6,19.8z M26.3,13.4c1.4-0.3,2.2-0.7,2.7-1.4c0.9-1,1.1-2.1,0.8-3.5c-0.6-2.8-2.7-3.4-4.7-3
		c-0.8,0.2-1.2,0.4-1.3,0.6c-0.2,0.2-0.2,0.5-0.1,1.2l1.3,6.4L26.3,13.4z"/>
	<path class="st1" d="M58.6,13.3c-0.3,1.3-0.8,3.3-1.1,4.1c-0.8,0.2-2.8,0.9-4.8,1.1c-6.3,0.5-10-3.5-10.3-8
		c-0.5-5.7,3.4-9.5,9.4-10c2.2-0.2,4,0.2,4.9,0.2c0.2,1.2,0.5,2.8,0.9,4.1l-0.8,0.3c-0.7-1.7-1.5-2.8-2.9-3.3
		c-0.7-0.3-1.7-0.3-2.7-0.2c-4.5,0.4-6.5,4.1-6.1,8.2c0.4,5.1,3.7,8.2,7.7,7.8c2.7-0.2,3.9-1.6,5-4.4L58.6,13.3z"/>
	<path class="st1" d="M85.2,1.4c-2.2,0.1-2.4,0.3-2.5,2.5l-0.4,10.7c-0.1,2.2,0.2,2.3,2.3,2.6l0,0.7c-2.1-0.1-5-0.2-7.1-0.3l0-0.7
		c2.2-0.2,2.4-0.2,2.5-2.5l0.2-5.3l-9.1-0.3l-0.2,5.3c-0.1,2.2,0.1,2.3,2.3,2.6l0,0.7c-2.1-0.1-5-0.2-7.1-0.3l0-0.7
		c2.2-0.2,2.4-0.2,2.5-2.5L69,3.4c0.1-2.2-0.1-2.4-2.3-2.7l0-0.7l7.1,0.3l0,0.7c-2.1,0.1-2.4,0.3-2.5,2.5l-0.2,4.2l9.1,0.3l0.2-4.2
		c0.1-2.2-0.2-2.4-2.3-2.7l0-0.7c2.1,0.1,5,0.2,7.1,0.3L85.2,1.4z"/>
	<path class="st1" d="M91.7,18.9l0.1-0.7c2.2,0.1,2.4,0,2.7-2.2L96,5.5c0.3-2.3,0.1-2.4-2-2.9l0.1-0.7l7.1,1l-0.1,0.7
		c-2.2-0.1-2.4,0-2.8,2.3l-1.5,10.5c-0.3,2.3-0.1,2.4,2,2.9l-0.1,0.7L91.7,18.9z"/>
	<path class="st1" d="M126.1,9.1c-1.8-0.2-2.3-0.1-3.8,2c-1.1,1.5-6.9,9.3-8.9,12.2l-0.9-0.2c-0.5-4.5-1.2-11.1-1.7-15.3
		c-0.2-2.1-0.6-2.5-2.2-3l0.2-0.7l6.6,1.7l-0.2,0.7c-2-0.3-2.1,0-2,1.1c0.2,2,0.8,7.7,1.3,12.3c2.2-3,5-6.8,7-9.7
		c0.9-1.4,0.7-1.7-1.4-2.5l0.2-0.7l5.9,1.5L126.1,9.1z"/>
	<path class="st1" d="M141.6,28.3c-0.4,0.6-2.1,2.8-2.7,3.5l-12-4.9l0.3-0.7c2.4,0.8,2.6,0.6,3.4-1.4l4-9.7c0.9-2.2,0.7-2.4-1.1-3.4
		l0.3-0.7l7.5,3.1c2.3,0.9,3.3,1.3,3.6,1.4c-0.2,0.6-0.9,2.5-1.3,3.9l-0.8-0.2c0.1-0.9,0.1-1.5,0-2.2c-0.1-1-0.6-1.4-2-2l-2.3-1
		c-0.8-0.3-0.8-0.3-1.1,0.5l-2.2,5.4l2.7,1.1c1.8,0.8,2.1,0.4,3.1-1.1l0.8,0.3l-2.1,5.1l-0.8-0.3c0.4-1.9,0.3-2.2-1.5-3l-2.7-1.1
		l-2,4.9c-0.7,1.7-0.2,2.1,1,2.6l2.3,0.9c1.5,0.6,1.8,0.5,2.6,0.1c0.7-0.3,1.6-1.1,2.3-1.7L141.6,28.3z"/>
</g>
</svg>
