<?xml version="1.0" encoding="utf-8"?>
<!-- Generator: Adobe Illustrator 22.1.0, SVG Export Plug-In . SVG Version: 6.00 Build 0)  -->
<svg version="1.1" id="Layer_1" xmlns="http://www.w3.org/2000/svg" xmlns:xlink="http://www.w3.org/1999/xlink" x="0px" y="0px"
	 viewBox="0 0 218 130.4" style="enable-background:new 0 0 218 130.4;" xml:space="preserve">
<style type="text/css">
	.st0{fill:none;stroke:#0B0F92;stroke-width:2;stroke-miterlimit:10;}
	.st1{fill:#0B0F92;}
	.st2{fill:#FF00FF;}
	.st3{fill:#0000FF;}
	.st4{fill:#00FFFF;}
	.st5{fill:#00FF00;}
	.st6{fill:#FFFF00;}
	.st7{fill:#FF9900;}
	.st8{fill:#FF0000;}
	.st9{fill:#FFFFFF;}
	.st10{fill:#FFFFFF;stroke:#0B0F92;stroke-width:2;stroke-linejoin:round;stroke-miterlimit:10;}
	.st11{fill:none;stroke:#0B0F92;stroke-width:2;stroke-linejoin:round;stroke-miterlimit:10;}
</style>
<g>
	<path class="st2" d="M181.6,97.7c-18.4-24.3-44.7-38.2-72.2-38.2c-26.7,0-52.6,13.3-70.8,36.4l-4-3.1
		c19.2-24.4,46.5-38.3,74.8-38.3c29.1,0,56.9,14.7,76.2,40.2L181.6,97.7z"/>
	<path class="st3" d="M184.4,93.5c-19.1-24.3-46.4-38.2-75-38.2c-27.8,0-54.6,13.3-73.6,36.5l-3.9-3.2C51.8,64.2,80,50.2,109.4,50.2
		c30.2,0,59,14.6,79,40.2L184.4,93.5z"/>
	<path class="st4" d="M187.1,90.6c-19.8-25.2-48.1-39.6-77.8-39.6c-28.8,0-56.6,13.8-76.3,37.8l-3.9-3.2
		C49.8,60.4,79,45.9,109.3,45.9c31.2,0,61,15.2,81.8,41.6L187.1,90.6z"/>
	<path class="st5" d="M189.9,87.6c-20.5-26.1-49.8-41-80.6-41c-29.8,0-58.7,14.3-79,39.1l-3.9-3.2c21.3-26,51.6-41,82.9-41
		c32.3,0,63.1,15.7,84.5,43L189.9,87.6z"/>
	<path class="st6" d="M192.6,84.7c-21.2-27-51.6-42.4-83.3-42.4c-30.9,0-60.7,14.8-81.7,40.5l-3.9-3.2c22-26.9,53.2-42.3,85.6-42.3
		c33.3,0,65.1,16.2,87.3,44.4L192.6,84.7z"/>
	<path class="st7" d="M195.3,81.8c-21.9-27.9-53.3-43.8-86.1-43.8c-31.9,0-62.7,15.2-84.4,41.8l-3.9-3.2
		c22.7-27.7,54.9-43.7,88.3-43.7c34.4,0,67.2,16.7,90,45.8L195.3,81.8z"/>
	<path class="st8" d="M198,78.8c-22.6-28.7-55-45.2-88.8-45.2c-32.9,0-64.7,15.7-87.1,43.1l-3.9-3.2c23.4-28.6,56.6-45,91-45
		c35.4,0,69.2,17.2,92.8,47.2L198,78.8z"/>
	<g>
		<path class="st9" d="M30.2,104.9c-9.5,0-17.5-4.4-18.3-10l0-0.4l-0.3-0.1c-6.4-1.3-11-6.5-11-12.4c0-7,6.3-12.7,14-12.7
			c0.5,0,1.1,0,1.7,0.1l0.3,0l0.2-0.3c2.3-3.7,8-6.2,14.2-6.2c8.4,0,15.3,4.3,15.3,9.6c0,0.8-0.2,1.6-0.5,2.4l-0.3,0.7l0.8-0.1
			c1.2-0.1,2.1-0.1,3-0.1c12.2,0,22.2,4.9,22.2,10.8s-10,10.8-22.2,10.8c-0.2,0-0.5,0-0.7,0l-0.7,0l-0.1,0.3
			C45.1,102,38.1,104.9,30.2,104.9z"/>
		<path d="M30.9,63.6c8.1,0,14.8,4.1,14.8,9.1c0,0.7-0.2,1.5-0.5,2.2l-0.6,1.5l1.6-0.1c1.1-0.1,2.1-0.1,3-0.1
			c11.8,0,21.7,4.7,21.7,10.3c0,5.6-9.9,10.3-21.7,10.3c-0.2,0-0.4,0-0.7,0l-0.4,0l-0.6,0l-0.3,0.5c-2.5,4.2-9.3,7.1-17,7.1
			c-9.3,0-17.1-4.2-17.8-9.5l-0.1-0.7L11.6,94C5.5,92.8,1,87.8,1,82.1c0-6.7,6.1-12.2,13.5-12.2c0.5,0,1,0,1.6,0.1l0.6,0.1l0.3-0.5
			C19.2,65.9,24.8,63.6,30.9,63.6 M30.9,62.6c-6.7,0-12.4,2.7-14.7,6.4c-0.6-0.1-1.1-0.1-1.7-0.1C6.5,68.9,0,74.8,0,82.1
			C0,88.4,4.9,93.7,11.4,95c0.8,5.8,8.9,10.4,18.8,10.4c8.2,0,15.2-3.2,17.8-7.6c0.4,0,0.7,0,1.1,0c12.5,0,22.7-5.1,22.7-11.3
			c0-6.3-10.2-11.3-22.7-11.3c-1,0-2.1,0-3.1,0.1c0.4-0.8,0.6-1.7,0.6-2.6C46.6,67.1,39.6,62.6,30.9,62.6L30.9,62.6z"/>
	</g>
	<line class="st0" x1="110" y1="81.4" x2="110" y2="128.4"/>
	<g>
		<path class="st1" d="M51.1,26.4l-0.2-0.7c1.6-0.8,1.7-1.1,1-1.9c-0.7-0.9-1.6-1.9-2.7-3.3l-5.4,1.9c0,1.3,0,2.4,0,3.5
			c0,1.8,0.4,1.9,2.6,1.4l0.2,0.7l-5.8,2l-0.2-0.7c1.5-0.8,1.9-1.1,1.9-3.6l0.5-15l0.8-0.4c3.1,3.7,6.5,7.9,9.6,11.7
			c1.6,1.9,1.9,2,3.7,1.6l0.2,0.7L51.1,26.4z M43.9,13.9c0,2.4-0.1,5-0.1,7.3l4.7-1.7L43.9,13.9z"/>
		<path class="st1" d="M78.1,19.8c-0.3,0.1-0.6,0.1-1,0.2c-1.9,0.3-3,0-4.5-1.4c-1.2-1.1-2.5-2.6-3.6-3.7c-0.7-0.7-1.1-0.8-2.4-0.5
			l-0.9,0.2l0.9,4.1c0.5,2.2,0.8,2.3,2.9,2.1l0.2,0.7l-7,1.5l-0.2-0.7c2.1-0.7,2.3-0.8,1.8-3L62.1,8.7c-0.5-2.2-0.8-2.2-2.9-2
			L59.1,6l6.6-1.4c1.9-0.4,3.2-0.4,4.4,0C71.3,5,72.2,6,72.6,7.6c0.5,2.2-0.7,3.9-2.4,5.2c0.6,0.7,2.1,2.2,3.2,3.2
			c1.3,1.2,1.9,1.7,2.6,2.2c0.9,0.6,1.5,0.8,2.2,0.8L78.1,19.8z M66.7,13.4c1.4-0.3,2.2-0.7,2.7-1.4c0.9-1,1.1-2.1,0.8-3.5
			c-0.6-2.8-2.7-3.4-4.7-3c-0.8,0.2-1.2,0.4-1.3,0.6C64,6.3,64,6.6,64.1,7.3l1.3,6.4L66.7,13.4z"/>
		<path class="st1" d="M99.1,13.3c-0.3,1.3-0.8,3.3-1.1,4.1c-0.8,0.2-2.8,0.9-4.8,1.1c-6.3,0.5-10-3.5-10.3-8
			c-0.5-5.7,3.4-9.5,9.4-10c2.2-0.2,4,0.2,4.9,0.2c0.2,1.2,0.5,2.8,0.9,4.1l-0.8,0.3c-0.7-1.7-1.5-2.8-2.9-3.3
			c-0.7-0.3-1.7-0.3-2.7-0.2c-4.5,0.4-6.5,4.1-6.1,8.2c0.4,5.1,3.7,8.2,7.7,7.8c2.7-0.2,3.9-1.6,5-4.4L99.1,13.3z"/>
		<path class="st1" d="M125.7,1.4c-2.2,0.1-2.4,0.3-2.5,2.5l-0.4,10.7c-0.1,2.2,0.2,2.3,2.3,2.6l0,0.7c-2.1-0.1-5-0.2-7.1-0.3l0-0.7
			c2.2-0.2,2.4-0.2,2.5-2.5l0.2-5.3l-9.1-0.3l-0.2,5.3c-0.1,2.2,0.1,2.3,2.3,2.6l0,0.7c-2.1-0.1-5-0.2-7.1-0.3l0-0.7
			c2.2-0.2,2.4-0.2,2.5-2.5l0.4-10.7c0.1-2.2-0.1-2.4-2.3-2.7l0-0.7l7.1,0.3l0,0.7c-2.1,0.1-2.4,0.3-2.5,2.5l-0.2,4.2l9.1,0.3
			l0.2-4.2c0.1-2.2-0.2-2.4-2.3-2.7l0-0.7c2.1,0.1,5,0.2,7.1,0.3L125.7,1.4z"/>
		<path class="st1" d="M132.2,18.9l0.1-0.7c2.2,0.1,2.4,0,2.7-2.2l1.5-10.5c0.3-2.3,0.1-2.4-2-2.9l0.1-0.7l7.1,1l-0.1,0.7
			c-2.2-0.1-2.4,0-2.8,2.3l-1.5,10.5c-0.3,2.3-0.1,2.4,2,2.9l-0.1,0.7L132.2,18.9z"/>
		<path class="st1" d="M166.5,9.1c-1.8-0.2-2.3-0.1-3.8,2c-1.1,1.5-6.9,9.3-8.9,12.2l-0.9-0.2c-0.5-4.5-1.2-11.1-1.7-15.3
			c-0.2-2.1-0.6-2.5-2.2-3l0.2-0.7l6.6,1.7l-0.2,0.7c-2-0.3-2.1,0-2,1.1c0.2,2,0.8,7.7,1.3,12.3c2.2-3,5-6.8,7-9.7
			c0.9-1.4,0.7-1.7-1.4-2.5l0.2-0.7l5.9,1.5L166.5,9.1z"/>
		<path class="st1" d="M182.1,28.3c-0.4,0.6-2.1,2.8-2.7,3.5l-12-4.9l0.3-0.7c2.4,0.8,2.6,0.6,3.4-1.4l4-9.7
			c0.9-2.2,0.7-2.4-1.1-3.4l0.3-0.7l7.5,3.1c2.3,0.9,3.3,1.3,3.6,1.4c-0.2,0.6-0.9,2.5-1.3,3.9l-0.8-0.2c0.1-0.9,0.1-1.5,0-2.2
			c-0.1-1-0.6-1.4-2-2l-2.3-1c-0.8-0.3-0.8-0.3-1.1,0.5l-2.2,5.4l2.7,1.1c1.8,0.8,2.1,0.4,3.1-1.1l0.8,0.3l-2.1,5.1l-0.8-0.3
			c0.4-1.9,0.3-2.2-1.5-3l-2.7-1.1l-2,4.9c-0.7,1.7-0.2,2.1,1,2.6l2.3,0.9c1.5,0.6,1.8,0.5,2.6,0.1c0.7-0.3,1.6-1.1,2.3-1.7
			L182.1,28.3z"/>
	</g>
	<g>
		<path class="st9" d="M179,99.9c-10.3,0-17.2-2.9-17.2-5.7c0-1.3,1.4-2.3,2.6-2.9l1.3-0.7l-1.4-0.2c-6.4-1.1-10.8-3.8-10.8-6.8
			c0-1.9,1.7-3.7,4.8-5.1l0.4-0.2l-0.1-0.4c-0.2-0.7-0.3-1.4-0.3-2.1c0-6.5,9.1-11.8,20.2-11.8s20.2,5.3,20.2,11.8v0.5l0.5,0.1
			c10.5,0.6,18.4,4.4,18.4,8.9c0,4.8-9.3,8.8-20.8,8.9l-0.4,0l-0.1,0.4C195.7,97.1,189,99.9,179,99.9z"/>
		<path d="M178.4,64.4c10.8,0,19.6,5.1,19.7,11.3l0,0.1l0,0.1l0,1l1,0.1c10.1,0.6,18,4.3,18,8.4c0,4.5-9.3,8.3-20.3,8.4l-0.8,0
			l-0.1,0.8c-0.4,2.4-7.3,4.9-16.7,4.9c-10.4,0-16.7-3-16.7-5.2c0-0.8,0.8-1.7,2.4-2.5l2.6-1.4l-2.9-0.5c-6.1-1-10.3-3.6-10.3-6.3
			c0-1.7,1.6-3.4,4.5-4.6l0.8-0.4l-0.3-0.8c-0.2-0.7-0.3-1.3-0.3-2C158.7,69.5,167.6,64.4,178.4,64.4 M178.4,63.4
			c-11.4,0-20.7,5.5-20.7,12.3c0,0.8,0.1,1.5,0.4,2.3c-3.1,1.4-5.1,3.4-5.1,5.6c0,3.4,4.7,6.2,11.2,7.3c-1.8,1-2.9,2.1-2.9,3.4
			c0,3.4,7.9,6.2,17.7,6.2c9.4,0,17.1-2.5,17.7-5.8c11.8-0.1,21.3-4.3,21.3-9.4c0-4.8-8.2-8.7-18.9-9.4c0,0,0-0.1,0-0.1
			C199.1,68.9,189.8,63.4,178.4,63.4L178.4,63.4z"/>
	</g>
	<polyline class="st11" points="92,115.4 110,129.4 128,115.4 	"/>
</g>
</svg>
