<?xml version="1.0" encoding="utf-8"?>
<!-- Generator: Adobe Illustrator 22.1.0, SVG Export Plug-In . SVG Version: 6.00 Build 0)  -->
<svg version="1.1" id="Layer_1" xmlns="http://www.w3.org/2000/svg" xmlns:xlink="http://www.w3.org/1999/xlink" x="0px" y="0px"
	 viewBox="0 0 218 101.9" style="enable-background:new 0 0 218 101.9;" xml:space="preserve">
<style type="text/css">
	.st0{fill:#FF00FF;}
	.st1{fill:#0000FF;}
	.st2{fill:#00FFFF;}
	.st3{fill:#00FF00;}
	.st4{fill:#FFFF00;}
	.st5{fill:#FF9900;}
	.st6{fill:#FF0000;}
	.st7{fill:#FFFFFF;}
	.st8{fill:#000099;}
	.st9{fill:none;stroke:#FFFFFF;stroke-width:4;stroke-miterlimit:10;}
	.st10{fill:none;stroke:#FFFFFF;stroke-width:4;stroke-linejoin:round;stroke-miterlimit:10;}
</style>
<path class="st0" d="M181.6,69.2C163.2,44.9,136.9,31,109.4,31c-26.7,0-52.6,13.3-70.8,36.4l-4-3.1C53.8,39.9,81.1,26,109.4,26
	c29.1,0,56.9,14.7,76.2,40.2L181.6,69.2z"/>
<path class="st1" d="M184.4,65c-19.1-24.3-46.4-38.2-75-38.2c-27.8,0-54.6,13.3-73.6,36.5l-3.9-3.2C51.8,35.7,80,21.7,109.4,21.7
	c30.2,0,59,14.6,79,40.2L184.4,65z"/>
<path class="st2" d="M187.1,62.1c-19.8-25.2-48.1-39.6-77.8-39.6c-28.8,0-56.6,13.8-76.3,37.8l-3.9-3.2
	C49.8,31.9,79,17.4,109.3,17.4c31.2,0,61,15.2,81.8,41.6L187.1,62.1z"/>
<path class="st3" d="M189.9,59.1c-20.5-26.1-49.8-41-80.6-41c-29.8,0-58.7,14.3-79,39.1L26.4,54C47.7,28,78,13,109.3,13
	c32.3,0,63.1,15.7,84.5,43L189.9,59.1z"/>
<path class="st4" d="M192.6,56.2c-21.2-27-51.6-42.4-83.3-42.4c-30.9,0-60.7,14.8-81.7,40.5l-3.9-3.2c22-26.9,53.2-42.3,85.6-42.3
	c33.3,0,65.1,16.2,87.3,44.4L192.6,56.2z"/>
<path class="st5" d="M195.3,53.3C173.4,25.4,142,9.5,109.2,9.5c-31.9,0-62.7,15.2-84.4,41.8l-3.9-3.2C43.6,20.4,75.8,4.4,109.2,4.4
	c34.4,0,67.2,16.7,90,45.8L195.3,53.3z"/>
<path class="st6" d="M198,50.3c-22.6-28.7-55-45.2-88.8-45.2c-32.9,0-64.7,15.7-87.1,43.1L18.2,45c23.4-28.6,56.6-45,91-45
	c35.4,0,69.2,17.2,92.8,47.2L198,50.3z"/>
<g>
	<path class="st7" d="M30.2,76.4c-9.5,0-17.5-4.4-18.3-10V66l-0.3-0.1c-6.4-1.3-11-6.5-11-12.4c0-7,6.3-12.7,14-12.7
		c0.5,0,1.1,0,1.7,0.1h0.3l0.2-0.3c2.3-3.7,8-6.2,14.2-6.2c8.4,0,15.3,4.3,15.3,9.6c0,0.8-0.2,1.6-0.5,2.4l-0.3,0.7l0.8-0.1
		c1.2-0.1,2.1-0.1,3-0.1c12.2,0,22.2,4.9,22.2,10.8s-10,10.8-22.2,10.8c-0.2,0-0.5,0-0.7,0h-0.7l-0.1,0.3
		C45.1,73.5,38.1,76.4,30.2,76.4z"/>
	<path class="st8" d="M30.9,35.1c8.1,0,14.8,4.1,14.8,9.1c0,0.7-0.2,1.5-0.5,2.2l-0.6,1.5l1.6-0.1c1.1-0.1,2.1-0.1,3-0.1
		c11.8,0,21.7,4.7,21.7,10.3c0,5.6-9.9,10.3-21.7,10.3c-0.2,0-0.4,0-0.7,0h-0.4h-0.6l-0.3,0.5c-2.5,4.2-9.3,7.1-17,7.1
		c-9.3,0-17.1-4.2-17.8-9.5l-0.1-0.7l-0.7-0.2C5.5,64.3,1,59.3,1,53.6c0-6.7,6.1-12.2,13.5-12.2c0.5,0,1,0,1.6,0.1l0.6,0.1l0.3-0.5
		C19.2,37.4,24.8,35.1,30.9,35.1 M30.9,34.1c-6.7,0-12.4,2.7-14.7,6.4c-0.6-0.1-1.1-0.1-1.7-0.1C6.5,40.4,0,46.3,0,53.6
		c0,6.3,4.9,11.6,11.4,12.9c0.8,5.8,8.9,10.4,18.8,10.4c8.2,0,15.2-3.2,17.8-7.6c0.4,0,0.7,0,1.1,0c12.5,0,22.7-5.1,22.7-11.3
		c0-6.3-10.2-11.3-22.7-11.3c-1,0-2.1,0-3.1,0.1c0.4-0.8,0.6-1.7,0.6-2.6C46.6,38.6,39.6,34.1,30.9,34.1L30.9,34.1z"/>
</g>
<line class="st9" x1="110" y1="52.9" x2="110" y2="99.9"/>
<g>
	<path class="st7" d="M179,71.4c-10.3,0-17.2-2.9-17.2-5.7c0-1.3,1.4-2.3,2.6-2.9l1.3-0.7l-1.4-0.2c-6.4-1.1-10.8-3.8-10.8-6.8
		c0-1.9,1.7-3.7,4.8-5.1l0.4-0.2l-0.1-0.4c-0.2-0.7-0.3-1.4-0.3-2.1c0-6.5,9.1-11.8,20.2-11.8s20.2,5.3,20.2,11.8v0.5l0.5,0.1
		c10.5,0.6,18.4,4.4,18.4,8.9c0,4.8-9.3,8.8-20.8,8.9h-0.4l-0.1,0.4C195.7,68.6,189,71.4,179,71.4z"/>
	<path class="st8" d="M178.4,35.9c10.8,0,19.6,5.1,19.7,11.3v0.1v0.1v1l1,0.1c10.1,0.6,18,4.3,18,8.4c0,4.5-9.3,8.3-20.3,8.4H196
		l-0.1,0.8c-0.4,2.4-7.3,4.9-16.7,4.9c-10.4,0-16.7-3-16.7-5.2c0-0.8,0.8-1.7,2.4-2.5l2.6-1.4l-2.9-0.5c-6.1-1-10.3-3.6-10.3-6.3
		c0-1.7,1.6-3.4,4.5-4.6l0.8-0.4l-0.3-0.8c-0.2-0.7-0.3-1.3-0.3-2C158.7,41,167.6,35.9,178.4,35.9 M178.4,34.9
		c-11.4,0-20.7,5.5-20.7,12.3c0,0.8,0.1,1.5,0.4,2.3c-3.1,1.4-5.1,3.4-5.1,5.6c0,3.4,4.7,6.2,11.2,7.3c-1.8,1-2.9,2.1-2.9,3.4
		c0,3.4,7.9,6.2,17.7,6.2c9.4,0,17.1-2.5,17.7-5.8c11.8-0.1,21.3-4.3,21.3-9.4c0-4.8-8.2-8.7-18.9-9.4v-0.1
		C199.1,40.4,189.8,34.9,178.4,34.9L178.4,34.9z"/>
</g>
<polyline class="st10" points="92,86.9 110,100.9 128,86.9 "/>
</svg>
