<?xml version="1.0" encoding="utf-8"?>
<!-- Generator: Adobe Illustrator 16.0.0, SVG Export Plug-In . SVG Version: 6.00 Build 0)  -->
<!DOCTYPE svg PUBLIC "-//W3C//DTD SVG 1.1//EN" "http://www.w3.org/Graphics/SVG/1.1/DTD/svg11.dtd">
<svg version="1.1" xmlns="http://www.w3.org/2000/svg" xmlns:xlink="http://www.w3.org/1999/xlink" x="0px" y="0px" width="373px"
	 height="353px" viewBox="0 0 373 353" enable-background="new 0 0 373 353" xml:space="preserve">
<g id="Layer_1" display="none">
	<g id="_x30_U09JD_1_" display="inline">
		
			<image overflow="visible" width="1083" height="1083" id="_x30_U09JD" xlink:href="9F108EB9C1E5BAE4.png"  transform="matrix(0.6178 0 0 0.6178 102.6875 -54.5586)">
		</image>
	</g>
</g>
<g id="Layer_2">
	
		<ellipse transform="matrix(-0.9812 -0.1932 0.1932 -0.9812 127.2466 301.7032)" fill="none" stroke="#000099" stroke-width="3" stroke-miterlimit="10" cx="78.337" cy="144.646" rx="61.433" ry="132.402"/>
	
		<ellipse transform="matrix(-0.9681 -0.2507 0.2507 -0.9681 147.5694 307.2965)" fill="none" stroke="#000099" stroke-width="3" stroke-miterlimit="10" cx="93.355" cy="144.25" rx="16.5" ry="29.25"/>
	<path fill="none" stroke="#000099" stroke-width="3" stroke-miterlimit="10" d="M249.285,220.941
		c12.013,3.112,26.529-12.259,32.043-33.555c5.514-21.297,0.247-41.083-11.768-44.193"/>
	<path fill="none" stroke="#000099" stroke-width="3" stroke-miterlimit="10" d="M321.592,236.314
		c12.013,3.111,26.223-11.633,31.737-32.928c5.514-21.297,0.247-41.083-11.768-44.193"/>
	
		<ellipse transform="matrix(-0.9681 -0.2507 0.2507 -0.9681 147.5671 307.2975)" fill="none" stroke="#000099" stroke-width="3" stroke-miterlimit="10" cx="93.355" cy="144.25" rx="10.815" ry="19.171"/>
	<path fill="none" stroke="#000099" stroke-width="3" stroke-miterlimit="10" d="M138.875,60.495c0,0,47.392,75.891,202.686,98.698"
		/>
	<path fill="none" stroke="#000099" stroke-width="3" stroke-miterlimit="10" d="M106.524,239.612c0,0,78.304-44.983,215.067-3.298"
		/>
	<line fill="none" stroke="#000099" stroke-width="3" stroke-miterlimit="10" x1="100.688" y1="115.934" x2="143.834" y2="121.75"/>
	<line fill="none" stroke="#000099" stroke-width="3" stroke-miterlimit="10" x1="86.023" y1="172.566" x2="130.429" y2="188.273"/>
	<path fill="none" stroke="#000099" stroke-width="3" stroke-miterlimit="10" d="M292.252,228.445L276.355,256l-9.333,6.333
		L231.689,325l-20-15c0,0-3.333-3.333,0-9s27-38.667,27-38.667L233.605,253l15.68-32.059"/>
	<path fill="none" stroke="#000099" stroke-width="3" stroke-miterlimit="10" d="M231.689,325l-12.313,0.667L200.188,310.5
		c0,0-2.499-3.5,1.167-10.834c3.518-7.037,26.333-38,26.333-38l-5-8L240.186,220"/>
	
		<line fill="none" stroke="#000099" stroke-width="3" stroke-miterlimit="10" x1="238.689" y1="262.333" x2="227.689" y2="261.666"/>
	<line fill="none" stroke="#000099" stroke-width="3" stroke-miterlimit="10" x1="233.605" y1="253" x2="222.689" y2="253.666"/>
</g>
</svg>
