<?xml version="1.0" encoding="utf-8"?>
<!-- Generator: Adobe Illustrator 22.1.0, SVG Export Plug-In . SVG Version: 6.00 Build 0)  -->
<svg version="1.1" id="Layer_1" xmlns="http://www.w3.org/2000/svg" xmlns:xlink="http://www.w3.org/1999/xlink" x="0px" y="0px"
	 viewBox="0 0 373 353" style="enable-background:new 0 0 373 353;" xml:space="preserve">
<style type="text/css">
	.st0{display:none;}
	.st1{display:inline;}
	.st2{fill:none;stroke:#FFCACA;stroke-width:3;stroke-miterlimit:10;}
</style>
<g id="Layer_1_1_" class="st0">
	<g id="_x30_U09JD_1_" class="st1">
	</g>
</g>
<g id="Layer_2_1_">
	<ellipse transform="matrix(0.9812 -0.1932 0.1932 0.9812 -22.48 58.7543)" class="st2" cx="290" cy="144.6" rx="61.4" ry="132.4"/>
	<ellipse transform="matrix(0.9681 -0.2507 0.2507 0.9681 -27.3795 73.544)" class="st2" cx="275" cy="144.2" rx="16.5" ry="29.3"/>
	<path class="st2" d="M98.8,143.2c-12,3.1-17.3,22.9-11.8,44.2c5.5,21.3,20,36.7,32,33.6"/>
	<path class="st2" d="M26.8,159.2c-12,3.1-17.3,22.9-11.8,44.2c5.5,21.3,19.7,36,31.7,32.9"/>
	
		<ellipse transform="matrix(0.9681 -0.2507 0.2507 0.9681 -27.3796 73.5446)" class="st2" cx="275" cy="144.2" rx="10.8" ry="19.2"/>
	<path class="st2" d="M26.8,159.2c155.3-22.8,202.7-98.7,202.7-98.7"/>
	<path class="st2" d="M46.8,236.3c136.8-41.7,215.1,3.3,215.1,3.3"/>
	<line class="st2" x1="224.5" y1="121.8" x2="267.7" y2="115.9"/>
	<line class="st2" x1="237.9" y1="188.3" x2="282.3" y2="172.6"/>
	<path class="st2" d="M119.1,220.9l15.7,32.1l-5.1,9.3c0,0,23.7,33,27,38.7s0,9,0,9l-20,15l-35.3-62.7L92,256l-15.9-27.6"/>
	<path class="st2" d="M128.2,220l17.5,33.7l-5,8c0,0,22.8,31,26.3,38c3.7,7.3,1.2,10.8,1.2,10.8L149,325.7l-12.3-0.7"/>
	<line class="st2" x1="140.7" y1="261.7" x2="129.7" y2="262.3"/>
	<line class="st2" x1="145.7" y1="253.7" x2="134.7" y2="253"/>
</g>
</svg>
