<?xml version="1.0" encoding="utf-8"?>
<!-- Generator: Adobe Illustrator 22.1.0, SVG Export Plug-In . SVG Version: 6.00 Build 0)  -->
<svg version="1.1" id="Layer_1" xmlns="http://www.w3.org/2000/svg" xmlns:xlink="http://www.w3.org/1999/xlink" x="0px" y="0px"
	 viewBox="0 0 247.1 75.6" style="enable-background:new 0 0 247.1 75.6;" xml:space="preserve">
<style type="text/css">
	.st0{fill:#FFFFFF;}
</style>
<g>
	<path class="st0" d="M50.1,55.6c-0.6,0.4-1.1,0.7-1.7,1c-3.5,2-5.7,2.4-9.7,1.4c-3.3-0.8-7-2-10.2-2.7c-2-0.5-2.8-0.2-5.2,1.8
		c-0.5,0.5-1.1,0.9-1.6,1.4c1.8,1.9,3.7,3.8,5.5,5.8c3,3.1,3.6,2.8,7.3,0.3c0.3,0.4,0.6,0.7,0.9,1.1c-3.8,3.1-7.5,6.4-11,10
		c-0.4-0.3-0.7-0.6-1.1-1c3-3.6,3.2-4,0.1-7c-4.8-4.7-9.6-9.4-14.5-14.2c-3.1-3-3.8-2.7-8,0.9c-0.4-0.3-0.7-0.6-1.1-1
		c4.2-4.2,8.5-8.1,13-11.8c3.9-3.2,6.8-4.8,9.7-5.3c3-0.6,5.9,0.3,7.7,2.7c2.6,3.5,1.4,7.6-1.2,11.6c1.9,0.5,6.1,1.6,8.9,2.4
		c3.4,0.9,5,1.3,6.8,1.6c2.1,0.4,3.5,0.1,4.7-0.3C49.7,54.8,49.9,55.2,50.1,55.6z M22.8,55.3c2.5-2.1,3.8-3.6,4.3-5.4
		c1-2.6,0.5-4.8-1.2-6.9c-3.3-4.2-8.4-3-12.4,0.4c-1.5,1.3-2.2,2.2-2.4,2.7c-0.2,0.7,0,1.2,0.9,2.1c2.9,3,5.7,6,8.6,9
		C21.3,56.6,22,56,22.8,55.3z"/>
	<path class="st0" d="M73.6,34.7c0.2,1.3,0.7,6.6,0.8,8.2c-8,3.1-15.8,6.9-23.2,11.5c-0.3-0.4-0.5-0.8-0.8-1.2
		c4.1-2.9,4.3-3.4,2.1-7c-3.4-5.7-6.9-11.3-10.3-17c-2.3-3.8-3.1-3.7-7.5-1.5c-0.3-0.4-0.5-0.8-0.8-1.2c5.8-3.5,11.8-6.7,17.9-9.5
		c5.6-2.6,8-3.5,8.7-3.8c0.6,1.1,2.3,4.5,3.5,6.8c-0.5,0.3-1.1,0.6-1.6,0.9c-1.2-1.3-2.2-2.1-3.3-2.8c-1.6-1.1-3.2-0.9-6.7,0.8
		c-1.9,0.9-3.7,1.8-5.6,2.7c-1.8,0.9-1.8,1.1-1.1,2.4c1.8,3.2,3.6,6.5,5.4,9.7c2-1,4-2,6-3c4.1-1.9,4.1-2.6,3.3-6
		c0.6-0.3,1.2-0.5,1.8-0.7c1.4,3.1,2.8,6.3,4.2,9.4c-0.5,0.2-1.1,0.5-1.6,0.7c-2.2-3-2.9-3.3-6.8-1.5c-2,0.9-3.9,1.9-5.9,2.9
		c1.6,2.9,3.3,5.8,4.9,8.7c1.7,3.1,2.9,2.8,5.4,1.6c1.5-0.7,3-1.4,4.6-2.1c3-1.3,3.3-1.9,3.9-3.6c0.5-1.4,0.8-3.7,1-5.3
		C72.5,34.9,73,34.8,73.6,34.7z"/>
	<path class="st0" d="M104.3,26.5c-0.1,1.6-0.8,6.9-1.1,8.5c-8,1.3-15.9,3.3-23.6,6c-0.2-0.4-0.3-0.9-0.5-1.3c4.4-2,4.8-2.3,3.5-6.3
		c-2.1-6.3-4.1-12.6-6.2-18.8c-1.3-4-2-4.1-7.1-2.9c-0.2-0.4-0.3-0.9-0.5-1.3c5.5-1.9,11.1-3.5,16.8-4.8c0.1,0.5,0.2,0.9,0.3,1.4
		c-4.9,1.6-5.5,2-4.3,6.1c1.9,6.5,3.8,13,5.7,19.5c0.9,2.9,1.5,3.5,4.4,2.8c0.1,0,3.8-0.8,4.1-0.9c2.7-0.6,3.4-1,4.3-2.4
		c1.1-1.5,1.8-3.7,2.4-5.6C103.1,26.4,103.7,26.5,104.3,26.5z"/>
	<path class="st0" d="M129.8,33.1c0-0.5,0-0.9,0-1.4c3.4-0.3,3.9-0.8,3.2-2.7c-0.6-2-1.6-4.5-2.7-7.7c-4.1-0.1-8.2,0-12.2,0.2
		c-0.8,2.3-1.5,4.3-2.1,6.4c-0.9,3.3-0.1,3.6,4.2,3.9c0,0.5,0,0.9,0.1,1.4c-4,0.2-8,0.5-12,1.1c-0.1-0.5-0.1-0.9-0.2-1.4
		c3.3-0.8,4-1.2,5.5-5.9c2.9-9,6.6-17.9,10.9-26.7c0.7-0.1,1.4-0.2,2.1-0.3c4.1,8.5,7.9,18.1,10.8,26.9c1.4,4.5,1.8,4.9,5.5,5.6
		c-0.1,0.5-0.1,0.9-0.2,1.4C138.4,33.4,134.1,33.2,129.8,33.1z M124.1,6.5c-1.9,4.3-3.8,8.9-5.3,12.9c3.6-0.2,7.2-0.3,10.7-0.2
		C127.9,15,126,10.8,124.1,6.5z"/>
	<path class="st0" d="M174.8,15.2c-0.1-1.7-0.3-3.5-0.7-4.5c-0.6-1.6-1.1-2.1-4.6-2.9c-2.1-0.5-4.2-1-6.3-1.4
		c-1.8,7.9-3.5,15.8-5.3,23.7c-0.8,3.8-0.5,4.4,4.3,5.8c-0.1,0.5-0.2,0.9-0.4,1.4c-4.9-1.2-9.9-2.2-15-2.9c0.1-0.5,0.1-0.9,0.2-1.4
		c4.9,0.4,5.4,0.1,6.1-3.8c1.5-8,3-15.9,4.5-23.9c-1.9-0.3-3.8-0.6-5.8-0.9c-3.5-0.5-4.5-0.3-5.8,1.1c-0.9,0.9-1.5,2-2.5,3.8
		c-0.6-0.1-1.2-0.1-1.8-0.2c0.6-3,1.3-6.1,1.8-8.8c0.5,0,1,0.1,1.5,0.1c0.8,1.3,1.5,1.3,3.4,1.5c8.5,1,16.9,2.6,25.2,4.8
		c1.8,0.5,2.3,0.4,3.5-0.2c0.5,0.1,1,0.3,1.5,0.4c-0.7,2.2-1.6,5.7-2.1,8.6C176,15.5,175.4,15.4,174.8,15.2z"/>
	<path class="st0" d="M202.5,44.8c-1,0.9-4.9,4.7-6.2,5.7c-7.6-4.1-15.6-7.5-23.7-10.2c0.2-0.4,0.3-0.9,0.5-1.3
		c4.8,1.2,5.3,1,6.8-2.8c2.4-6.1,4.9-12.2,7.3-18.4c1.6-4.1,1.1-4.7-3.4-6.5c0.2-0.4,0.3-0.9,0.5-1.3c6.3,2.1,12.5,4.6,18.6,7.4
		c5.6,2.6,7.9,3.9,8.6,4.2c-0.6,1.1-2.2,4.5-3.3,6.9c-0.6-0.2-1.2-0.4-1.8-0.7c0.3-1.8,0.3-3,0.1-4.2c-0.1-1.9-1.3-2.9-4.8-4.6
		c-1.9-0.9-3.8-1.7-5.6-2.5c-1.9-0.8-2-0.7-2.6,0.7c-1.5,3.4-3,6.8-4.4,10.1c2.1,0.8,4.1,1.7,6.1,2.6c4.1,1.9,4.7,1.4,7-1.3
		c0.6,0.3,1.1,0.6,1.7,0.9c-1.7,3-3.3,6-5,9.1c-0.5-0.3-1.1-0.5-1.6-0.8c1-3.5,0.8-4.2-3.1-6c-2-0.9-4-1.8-6-2.6
		c-1.3,3-2.7,6.1-4,9.1c-1.4,3.2-0.4,3.9,2,5c1.5,0.7,3.1,1.4,4.6,2.1c3,1.4,3.7,1.3,5.4,0.7c1.4-0.4,3.5-1.7,5-2.6
		C201.6,44,202,44.4,202.5,44.8z"/>
	<path class="st0" d="M234.8,36.4c7.6,5.8,11.2,11,12.1,15.9c0.7,4-0.3,8.1-3.9,11.3c-4.4,4-10,5.1-15.4,4.3
		c-5.3-0.9-10-3.5-15.5-7.4c-3.4-2.5-7-4.8-10.6-7c0.3-0.4,0.5-0.8,0.8-1.2c4.2,2.1,4.6,2,7-1.4c3.8-5.5,7.6-11,11.5-16.5
		c2.5-3.5,1.9-4.2-2.3-7.2c0.3-0.4,0.5-0.8,0.8-1.2C224.6,29.2,229.8,32.7,234.8,36.4z M213.6,53.3c-2.3,3-1.4,4.9,1.9,7.3
		c7.8,6,16,5.3,22.4-0.8c3.9-3.9,5.2-8.5,2.8-13.7c-1.4-3.1-4-6-7.6-8.7c-2.4-1.8-3.9-2.5-4.7-2.5c-0.7-0.1-1.2,0.2-2.4,1.8
		C221.9,42.2,217.8,47.8,213.6,53.3z"/>
</g>
</svg>
